<svg height="512" viewBox="0 0 64 64" width="512" xmlns="http://www.w3.org/2000/svg"><g id="Server-Storage-Computer-Connection-Internet"><path d="m37 51h-16l1-8h14l.25 2 .69 5.53z" fill="#c6c5ca"/><path d="m36 43h-14l-.25 2h14.5z" fill="#acabb1"/><path d="m55 9v26h-52v-26a6.018 6.018 0 0 1 6-6h40a5.988 5.988 0 0 1 4.75 2.34 5.91 5.91 0 0 1 1.25 3.66z" fill="#5aaae7"/><path d="m55 9v26h-30.06l28.81-29.66a5.91 5.91 0 0 1 1.25 3.66z" fill="#3d9ae2"/><path d="m42 53a2.015 2.015 0 0 1 -2 2h-22a2.006 2.006 0 0 1 -2-2 2.015 2.015 0 0 1 2-2h22a2.006 2.006 0 0 1 2 2z" fill="#acabb1"/><path d="m55 35v2a6.022 6.022 0 0 1 -6 6h-40a6.018 6.018 0 0 1 -6-6v-2z" fill="#c6c5ca"/><path d="m32 57h26v4h-26z" fill="#898890"/><rect fill="#acabb1" height="12" rx="2" width="32" x="29" y="29"/><rect fill="#acabb1" height="12" rx="2" width="32" x="29" y="45"/><path d="m53.46 41h-21.46v2 2h4.25 21.75v-4z" fill="#898890"/><circle cx="31" cy="18" fill="#3d9ae2" r="9"/><circle cx="29" cy="16" fill="#ffd422" r="9"/><circle cx="35" cy="35" fill="#ff9811" r="2"/><circle cx="35" cy="51" fill="#ff9811" r="2"/><path d="m32 41h26v2h-26z" fill="#787680"/><path d="m32 57h26v2h-26z" fill="#787680"/><g fill="#e0e0e2"><path d="m56 49h2v4h-2z"/><path d="m52 49h2v4h-2z"/><path d="m48 49h2v4h-2z"/></g><path d="m40 50h2v2h-2z" fill="#ffd422"/><path d="m44 50h2v2h-2z" fill="#00ccb3"/><path d="m56 33h2v4h-2z" fill="#e0e0e2"/><path d="m52 33h2v4h-2z" fill="#e0e0e2"/><path d="m48 33h2v4h-2z" fill="#e0e0e2"/><path d="m40 34h2v2h-2z" fill="#ffd422"/><path d="m44 34h2v2h-2z" fill="#00ccb3"/><path d="m28 19h2v2h-2z" fill="#1e81ce"/><path d="m31.121 17.878a3.074 3.074 0 0 0 -4.242 0l-1.414-1.414a5 5 0 0 1 7.07 0z" fill="#1e81ce"/><path d="m33.95 15.05a7.011 7.011 0 0 0 -9.9 0l-1.414-1.414a9.01 9.01 0 0 1 12.728 0z" fill="#1e81ce"/></g></svg>