<svg id="Capa_1" enable-background="new 0 0 512 512" height="512" viewBox="0 0 512 512" width="512" xmlns="http://www.w3.org/2000/svg"><g><g><g><circle cx="256" cy="256" fill="#dbedff" r="256"/></g><g><path d="m49.152 256c0-133.093 101.571-242.45 231.424-254.82-8.089-.771-16.285-1.18-24.576-1.18-141.385 0-256 114.615-256 256s114.615 256 256 256c8.291 0 16.487-.409 24.576-1.18-129.853-12.37-231.424-121.727-231.424-254.82z" fill="#b5dcff"/></g></g><g><path d="m256 35.027c-83.349 0-155.909 46.154-193.547 114.291h387.093c-37.637-68.137-110.197-114.291-193.546-114.291z" fill="#1ca8ff"/></g><g><path d="m256 476.973c83.349 0 155.909-46.154 193.547-114.291h-387.094c37.638 68.137 110.198 114.291 193.547 114.291z" fill="#1ca8ff"/></g><path d="m299.342 39.285c-14.016-2.788-28.507-4.258-43.342-4.258-83.349 0-155.909 46.154-193.547 114.291h86.684c30.939-56.009 85.477-97.157 150.205-110.033z" fill="#0094fd"/><path d="m149.137 362.682h-86.684c37.638 68.137 110.198 114.291 193.547 114.291 14.835 0 29.326-1.47 43.342-4.258-64.728-12.876-119.266-54.024-150.205-110.033z" fill="#0094fd"/><g fill="#60b9fe"><path d="m58.717 156.081c3.737 2.065 8.436.708 10.499-3.027 7.451-13.489 16.243-25.961 26.148-37.295h26.963c-5.495 9.579-10.471 19.818-14.849 30.668-1.596 3.957.317 8.46 4.275 10.056 3.959 1.598 8.46-.317 10.056-4.274 5.311-13.164 11.545-25.352 18.546-36.45h53.567c-2.573 10.095-4.876 20.866-6.865 32.227-.736 4.203 2.075 8.207 6.279 8.943 4.203.737 8.207-2.075 8.943-6.279 2.247-12.839 4.8-24.456 7.575-34.891h92.293c2.775 10.436 5.327 22.052 7.575 34.891.736 4.207 4.744 7.015 8.943 6.279 4.203-.736 7.015-4.739 6.279-8.943-1.989-11.362-4.292-22.132-6.865-32.227h53.567c7.001 11.099 13.235 23.286 18.546 36.45 1.598 3.96 6.102 5.87 10.056 4.274 3.957-1.596 5.871-6.099 4.274-10.056-4.377-10.851-9.354-21.089-14.849-30.668h26.963c9.906 11.334 18.697 23.806 26.148 37.295 2.065 3.738 6.767 5.089 10.499 3.027 3.735-2.063 5.091-6.764 3.027-10.499-40.301-72.959-117.055-118.281-200.31-118.281s-160.009 45.323-200.31 118.282c-2.063 3.735-.708 8.435 3.027 10.498zm342.977-55.775h-21.728c-9.808-14.275-20.879-26.729-32.915-37.111 19.975 9.441 38.426 21.95 54.643 37.111zm-40.832 0h-47.094c-5.366-17.541-13.235-37.693-24.245-52.384 26.736 8.344 51.372 26.507 71.339 52.384zm-104.862-57.553c12.785 0 28.83 18.144 41.607 57.553h-83.214c12.777-39.409 28.822-57.553 41.607-57.553zm-33.523 5.17c-11.007 14.686-18.877 34.834-24.245 52.384h-47.094c19.967-25.878 44.603-44.041 71.339-52.384zm-57.529 15.273c-12.036 10.382-23.107 22.835-32.915 37.111h-21.727c16.216-15.162 34.668-27.671 54.642-37.111z"/><path d="m453.282 355.919c-3.736-2.064-8.436-.707-10.499 3.027-7.451 13.489-16.243 25.961-26.148 37.295h-26.963c5.495-9.579 10.472-19.818 14.849-30.668 1.597-3.957-.317-8.46-4.274-10.056-3.959-1.598-8.46.318-10.056 4.274-5.311 13.164-11.545 25.352-18.546 36.45h-53.567c2.573-10.095 4.876-20.866 6.865-32.227.736-4.203-2.075-8.207-6.279-8.943-4.206-.736-8.207 2.076-8.943 6.279-2.247 12.839-4.8 24.456-7.575 34.891h-92.293c-2.775-10.436-5.327-22.052-7.575-34.891-.736-4.204-4.742-7.015-8.943-6.279-4.203.736-7.015 4.739-6.279 8.943 1.989 11.362 4.292 22.132 6.865 32.227h-53.567c-7.001-11.099-13.235-23.286-18.546-36.45-1.597-3.957-6.099-5.873-10.056-4.274-3.957 1.596-5.871 6.099-4.275 10.056 4.377 10.851 9.354 21.089 14.849 30.668h-26.961c-9.905-11.334-18.697-23.806-26.148-37.295-2.063-3.735-6.764-5.091-10.499-3.027-3.735 2.063-5.091 6.764-3.027 10.499 40.3 72.958 117.054 118.281 200.309 118.281s160.009-45.323 200.31-118.282c2.063-3.735.707-8.435-3.028-10.498zm-342.976 55.775h21.727c9.808 14.275 20.879 26.729 32.915 37.111-19.974-9.441-38.426-21.95-54.642-37.111zm40.832 0h47.094c5.366 17.542 13.235 37.693 24.245 52.384-26.736-8.344-51.372-26.507-71.339-52.384zm104.862 57.553c-12.785 0-28.83-18.144-41.607-57.553h83.214c-12.777 39.409-28.822 57.553-41.607 57.553zm33.523-5.17c11.007-14.686 18.877-34.834 24.245-52.384h47.094c-19.967 25.878-44.603 44.041-71.339 52.384zm57.528-15.273c12.036-10.382 23.108-22.835 32.915-37.111h21.728c-16.217 15.162-34.668 27.671-54.643 37.111z"/></g><g><g><path d="m112.59 335.403c-8.534 0-15.453-6.918-15.453-15.453v-127.9c0-8.534 6.918-15.453 15.453-15.453s15.453 6.918 15.453 15.453v127.9c-.001 8.534-6.919 15.453-15.453 15.453z" fill="#8479c2"/></g></g><g><g><path d="m209.804 335.403c-30.214 0-54.795-21.557-54.795-48.055 0-8.534 6.918-15.453 15.453-15.453 8.534 0 15.453 6.918 15.453 15.453 0 9.296 10.94 17.15 23.889 17.15s23.888-7.854 23.888-17.15c0-6.204-4.479-10.778-10.383-12.195l-34.393-8.254c-19.358-4.645-34.077-21.326-34.077-42.247 0-26.498 24.58-48.055 54.795-48.055 30.213 0 54.794 21.558 54.794 48.055 0 8.534-6.918 15.453-15.453 15.453s-15.453-6.918-15.453-15.453c0-9.296-10.94-17.15-23.888-17.15-12.95 0-23.889 7.854-23.889 17.15 0 6.204 4.479 10.778 10.383 12.195l34.393 8.254c19.358 4.645 34.077 21.326 34.077 42.247 0 26.497-24.58 48.055-54.794 48.055z" fill="#8479c2"/></g></g><g><g><path d="m350.593 335.403c-36.94 0-64.751-36.579-64.751-79.403 0-42.841 27.823-79.403 64.751-79.403 36.941 0 64.751 36.579 64.751 79.403 0 42.856-27.833 79.403-64.751 79.403zm0-127.901c-18.346 0-33.846 22.209-33.846 48.498 0 26.288 15.5 48.498 33.846 48.498s33.846-22.209 33.846-48.498c0-26.288-15.5-48.498-33.846-48.498z" fill="#8479c2"/></g></g><g fill="#6e60b8"><path d="m112.59 319.95v-127.9c0-5.716 3.112-10.695 7.726-13.368-2.275-1.318-4.908-2.084-7.726-2.084-8.534 0-15.453 6.918-15.453 15.453v127.9c0 8.534 6.918 15.453 15.453 15.453 2.818 0 5.451-.766 7.726-2.084-4.615-2.674-7.726-7.654-7.726-13.37z"/><g><path d="m217.531 303.534c2.436.62 5.037.963 7.727.963 12.949 0 23.888-7.854 23.888-17.15 0-6.204-4.479-6.255-10.383-7.672l-10.905-2.617c3.506 2.207 5.836 5.821 5.836 10.289-.001 7.366-6.871 13.821-16.163 16.187z"/><path d="m233.522 224.652c0 8.534 6.918 15.453 15.453 15.453 2.818 0 5.451-.766 7.726-2.084-4.614-2.673-7.726-7.652-7.726-13.368 0-9.296-10.94-17.15-23.888-17.15-2.69 0-5.29.343-7.727.964 9.292 2.365 16.162 8.82 16.162 16.185z"/><path d="m188.916 266.899 8.377 2.011c-15.757-7.473-27.002-25.972-27.002-44.257 0-24.197 20.501-44.264 47.068-47.568-2.526-.314-5.103-.487-7.726-.487-30.214 0-54.795 21.558-54.795 48.055.001 20.92 14.72 37.601 34.078 42.246z"/><path d="m170.463 287.348c0-5.716 3.112-10.695 7.726-13.368-2.275-1.318-4.908-2.084-7.726-2.084-8.534 0-15.453 6.918-15.453 15.453 0 26.498 24.58 48.055 54.795 48.055 2.623 0 5.2-.173 7.726-.487-26.567-3.305-47.068-23.372-47.068-47.569z"/></g><g><path d="m358.319 303.15c2.492.871 5.078 1.348 7.726 1.348 18.346 0 33.846-22.209 33.846-48.498s-15.5-48.498-33.846-48.498c-2.649 0-5.235.477-7.726 1.348 14.769 5.163 26.12 24.657 26.12 47.15s-11.351 41.986-26.12 47.15z"/><path d="m301.294 256c0-39.795 24.013-74.152 57.025-78.839-2.527-.359-5.101-.564-7.727-.564-36.928 0-64.751 36.562-64.751 79.403 0 42.824 27.811 79.403 64.751 79.403 2.625 0 5.199-.205 7.726-.564-33.021-4.688-57.024-39.06-57.024-78.839z"/></g></g></g></svg>