<svg height="456pt" viewBox="0 -52 456 456" width="456pt" xmlns="http://www.w3.org/2000/svg"><g fill="#1ae5be"><path d="m230 296.566406c-3.515625 0-6.617188-2.292968-7.648438-5.652344l-26.566406-86.566406 15.300782-4.695312 18.914062 61.648437 18.921875-61.648437 15.300781 4.695312-26.574218 86.570313c-1.03125 3.359375-4.136719 5.648437-7.648438 5.648437zm0 0"/><path d="m222 289h16v59h-16zm0 0"/><path d="m363 239.617188h-.03125c-10.175781-.085938-18.9375-7.199219-21.117188-17.136719l-13.210937-56.664063 15.582031-3.632812 13.207032 56.664062c.542968 2.675782 2.832031 4.636719 5.558593 4.765625.128907 0 .289063 0 .433594-.011719 2.558594-.289062 4.636719-2.199218 5.140625-4.722656l13.214844-56.695312 15.582031 3.632812-13.214844 56.695313c-2.132812 9.363281-10.089843 16.265625-19.664062 17.054687-.492188.03125-.988281.050782-1.480469.050782zm0 0"/><path d="m355 231h16v79h-16zm0 0"/><path d="m90 268.566406c-3.601562 0-6.757812-2.402344-7.714844-5.875l-26.566406-96.570312 15.425781-4.242188 18.855469 68.53125 18.855469-68.53125 15.425781 4.242188-26.566406 96.570312c-.957032 3.472656-4.113282 5.875-7.714844 5.875zm0 0"/><path d="m82 261h16v49h-16zm0 0"/><path d="m316.570312 95.875h-.019531l.035157-16-.019532 8-.003906-8c1.941406-.007812 47.753906-.730469 61.78125-47.1875l15.3125 4.625c-9.152344 30.328125-29.640625 44.664062-45.214844 51.351562-10.082031 4.367188-20.890625 6.8125-31.871094 7.210938zm0 0"/><path d="m411.652344 95.824219c-31.203125-3.550781-47.007813-31.777344-47.667969-32.980469l14.03125-7.6875-7.015625 3.84375 7-3.867188c.125.21875 12.617188 22.199219 35.460938 24.796876zm0 0"/></g><path d="m413 218h-17c-4.417969 0-8 3.582031-8 8s3.582031 8 8 8h17c4.417969 0 8-3.582031 8-8s-3.582031-8-8-8zm0 0" fill="#0635c9"/><path d="m263 258c-4.417969 0-8 3.582031-8 8s3.582031 8 8 8h17c4.417969 0 8-3.582031 8-8s-3.582031-8-8-8zm0 0" fill="#0635c9"/><path d="m142 223c0-4.417969-3.582031-8-8-8h-13c-4.417969 0-8 3.582031-8 8s3.582031 8 8 8h13c4.417969 0 8-3.582031 8-8zm0 0" fill="#0635c9"/><path d="m227.746094 175.128906c30.984375 0 56.101562-25.117187 56.101562-56.097656 0-30.984375-25.117187-56.101562-56.101562-56.101562-30.980469 0-56.097656 25.117187-56.097656 56.101562.035156 30.96875 25.128906 56.0625 56.097656 56.097656zm0-96.199218c22.148437 0 40.101562 17.953124 40.101562 40.101562 0 22.144531-17.953125 40.097656-40.101562 40.097656-22.144532 0-40.097656-17.953125-40.097656-40.097656.023437-22.136719 17.960937-40.078125 40.097656-40.101562zm0 0" fill="#0635c9"/><path d="m377.113281 151.027344h-24.300781c-31.820312 0-60.5625 19.425781-73.082031 48.300781-12.070313-7.105469-25.824219-10.84375-39.832031-10.832031h-24.296876c-13.941406-.011719-27.628906 3.695312-39.65625 10.734375-12.5-29.109375-41.070312-48.039063-72.75-48.199219h-24.300781c-43.550781.046875-78.8437498 35.335938-78.894531 78.886719v76.648437c0 4.417969 3.582031 8 8 8h128.710938v29.46875c0 4.417969 3.578124 8 8 8h166.074218c4.417969 0 8-3.582031 8-8v-29.46875h129.214844c4.417969 0 8-3.582031 8-8v-76.648437c-.046875-43.550781-35.339844-78.839844-78.886719-78.890625zm-361.113281 147.539062v-68.648437c.039062-34.714844 28.171875-62.847657 62.886719-62.886719h24.300781c26.644531.148438 50.363281 16.914062 59.398438 41.980469-16.488282 14.925781-25.886719 36.132812-25.878907 58.375v31.179687zm286.785156 37.46875h-150.074218v-68.652344c.039062-34.714843 28.171874-62.847656 62.890624-62.886718h24.296876c34.714843.039062 62.847656 28.171875 62.886718 62.886718zm137.214844-37.46875h-121.214844v-31.183594c.007813-22.175781-9.339844-43.328124-25.746094-58.246093 9.179688-25.136719 33.011719-41.925781 59.773438-42.109375h24.296875c34.71875.039062 62.851563 28.171875 62.890625 62.890625zm0 0" fill="#0635c9"/><path d="m364.457031 138.167969c25.496094.007812 47.789063-17.183594 54.261719-41.84375 6.472656-24.664063-4.503906-50.585938-26.71875-63.101563v-9.222656c0-13.253906-10.746094-24-24-24s-24 10.746094-24 24v5.84375c-25.113281 9.828125-39.679688 36.140625-34.675781 62.640625 5.007812 26.5 28.164062 45.691406 55.132812 45.683594zm-4.457031-114.167969c0-4.417969 3.582031-8 8-8s8 3.582031 8 8v3.164062c-3.796875-.796874-7.664062-1.199218-11.542969-1.199218-1.5 0-2.984375.078125-4.457031.195312zm4.457031 17.964844c22.136719.027344 40.074219 17.964844 40.097657 40.101562.117187 10.667969-4.070313 20.9375-11.617188 28.480469-7.542969 7.546875-17.8125 11.734375-28.480469 11.617187-22.148437 0-40.101562-17.953124-40.101562-40.097656 0-22.148437 17.953125-40.101562 40.101562-40.101562zm0 0" fill="#0635c9"/><path d="m91.039062 138.167969c30.863282 0 55.507813-24.574219 56.097657-55.949219 0-.050781 0-.101562 0-.152344 0-30.984375-25.117188-56.097656-56.097657-56.097656-30.984374 0-56.101562 25.113281-56.101562 56.097656s25.117188 56.101563 56.101562 56.101563zm0-96.199219c22.105469.023438 40.035157 17.917969 40.097657 40.023438-.460938 22.539062-18.0625 40.179687-40.097657 40.179687-22.148437 0-40.101562-17.957031-40.101562-40.101563 0-22.148437 17.953125-40.101562 40.101562-40.101562zm0 0" fill="#0635c9"/></svg>