<svg id="Layer_1" enable-background="new 0 0 512 512" height="512" viewBox="0 0 512 512" width="512" xmlns="http://www.w3.org/2000/svg"><g><path d="m512 88v400.5c0 12.96-10.54 23.5-23.5 23.5h-465c-12.96 0-23.5-10.54-23.5-23.5v-400.5c0-4.42 3.58-8 8-8h496c4.42 0 8 3.58 8 8z" fill="#edebfd"/><path d="m504 80h-40c4.42 0 8 3.58 8 8v400.5c0 12.96-10.54 23.5-23.5 23.5h40c12.96 0 23.5-10.54 23.5-23.5v-400.5c0-4.42-3.58-8-8-8z" fill="#d2d2fc"/><path d="m512 23.5v72.5h-512v-72.5c0-12.979 10.521-23.5 23.5-23.5h465c12.979 0 23.5 10.521 23.5 23.5z" fill="#8286c6"/><path d="m488.5 0h-40c12.979 0 23.5 10.521 23.5 23.5v72.5h40v-72.5c0-12.979-10.521-23.5-23.5-23.5z" fill="#505795"/><path d="m320 56h-232c-4.418 0-8-3.582-8-8s3.582-8 8-8h232c4.418 0 8 3.582 8 8s-3.582 8-8 8z" fill="#c8effd"/><path d="m56 56h-16c-4.418 0-8-3.582-8-8s3.582-8 8-8h16c4.418 0 8 3.582 8 8s-3.582 8-8 8z" fill="#c8effd"/><path d="m512 24v32c0 4.418-3.582 8-8 8h-48v-64h32c13.255 0 24 10.745 24 24z" fill="#e48c9b"/><path d="m512 24v32c0 4.42-3.58 8-8 8h-32v-40c0-10.45-6.68-19.33-16-22.63v-1.37h32c13.25 0 24 10.75 24 24z" fill="#cc5b6f"/><path d="m400 0v64h-32c-13.255 0-24-10.745-24-24v-32c0-4.418 3.582-8 8-8z" fill="#79cb9c"/><path d="m400 0h56v64h-56z" fill="#c8effd"/><circle cx="256" cy="256" fill="#7acef9" r="128"/><path d="m240 128.998c63.056 7.898 112 61.84 112 127.002s-48.944 119.104-112 127.002c76.805 9.62 144-50.513 144-127.002s-67.195-136.622-144-127.002z" fill="#6cb9e7"/><path d="m448 432v16c0 13.23-10.77 24-24 24h-48c4.42 0 8-3.58 8-8v-48c0-4.42-3.58-8-8-8h48c13.23 0 24 10.77 24 24z" fill="#7acef9"/><path d="m424 408h-32c13.23 0 24 10.77 24 24v16c0 13.23-10.77 24-24 24h32c13.23 0 24-10.77 24-24v-16c0-13.23-10.77-24-24-24z" fill="#6cb9e7"/><path d="m376 248h-76.844c-.546-16.098-2.743-32.004-6.514-47.493 17.404-6.893 32.806-18.616 44.068-34.098 2.599-3.573 1.81-8.576-1.763-11.176-3.571-2.599-8.576-1.81-11.175 1.763-9.127 12.546-21.491 22.151-35.477 28.01-5.928-18.639-14.197-36.533-24.7-53.254-1.674-2.665-4.661-3.995-7.594-3.695-2.934-.301-5.922 1.03-7.596 3.695-10.504 16.721-18.772 34.615-24.7 53.254-13.986-5.86-26.35-15.464-35.477-28.01-2.6-3.573-7.603-4.363-11.175-1.763-3.573 2.599-4.362 7.603-1.763 11.176 11.263 15.482 26.665 27.205 44.068 34.098-3.771 15.489-5.968 31.394-6.514 47.493h-76.844c-4.418 0-8 3.582-8 8s3.582 8 8 8h76.844c.546 16.098 2.743 32.004 6.514 47.493-17.404 6.893-32.806 18.616-44.068 34.098-2.599 3.573-1.81 8.576 1.763 11.176 3.572 2.599 8.577 1.81 11.175-1.763 9.127-12.546 21.491-22.151 35.477-28.01 5.928 18.639 14.197 36.533 24.7 53.254 1.549 2.465 4.389 4.018 7.595 3.69 3.205.328 6.047-1.225 7.596-3.69 10.504-16.721 18.772-34.615 24.7-53.254 13.986 5.86 26.35 15.464 35.477 28.01 1.566 2.152 4.003 3.294 6.476 3.294 6.441 0 10.34-7.376 6.463-12.707-11.263-15.482-26.665-27.205-44.068-34.098 3.771-15.489 5.968-31.394 6.514-47.493h76.842c4.418 0 8-3.582 8-8s-3.582-8-8-8zm-120-97.661c6.988 12.583 12.675 25.79 17.019 39.426-11.058 2.311-22.577 2.395-34.037 0 4.343-13.637 10.03-26.843 17.018-39.426zm-21.314 54.859c13.689 3.014 28.095 3.2 42.628 0 3.338 13.97 5.304 28.3 5.832 42.802h-54.292c.528-14.501 2.494-28.832 5.832-42.802zm21.314 156.463c-6.988-12.583-12.675-25.79-17.019-39.426 11.058-2.311 22.577-2.395 34.037 0-4.343 13.637-10.03 26.843-17.018 39.426zm21.314-54.859c-13.689-3.014-28.095-3.2-42.628 0-3.338-13.97-5.304-28.3-5.832-42.802h54.292c-.528 14.501-2.494 28.832-5.832 42.802z" fill="#6cb9e7"/><path d="m384 408v64h-296c-13.255 0-24-10.745-24-24v-16c0-13.255 10.745-24 24-24z" fill="#c8effd"/><path d="m96 448v-16c0-13.255 10.745-24 24-24h-32c-13.255 0-24 10.745-24 24v16c0 13.255 10.745 24 24 24h32c-13.255 0-24-10.745-24-24z" fill="#a0e1fd"/></g></svg>