<svg id="Layer_1" enable-background="new 0 0 512.03 512.03" height="512" viewBox="0 0 512.03 512.03" width="512" xmlns="http://www.w3.org/2000/svg"><g><path d="m280.015 359.2v96.83c0 4.42-3.58 8-8 8h-32c-4.42 0-8-3.58-8-8v-96.83c0-2.27.96-4.43 2.65-5.94 5.292-4.788 9.457.824 36.52-2.02 4.7-.48 8.83 3.203 8.83 7.96z" fill="#edebfd"/><path d="m277.365 353.26c-5.292-4.788-9.457.824-36.52-2.02-.205-.021-.41-.025-.615-.03 4.363.125 7.785 3.684 7.785 7.99v96.83c0 4.42-3.58 8-8 8h32c4.42 0 8-3.58 8-8v-96.83c0-2.27-.96-4.43-2.65-5.94z" fill="#d2d2fc"/><path d="m352.015 504.03c0 4.42-3.58 8-8 8h-176c-4.42 0-8-3.58-8-8 0-32.724 25.705-56 55-56h81c30.88 0 56 25.12 56 56z" fill="#595965"/><path d="m296.015 448.03h-32c30.88 0 56 25.12 56 56 0 4.42-3.58 8-8 8h32c4.42 0 8-3.58 8-8 0-30.88-25.12-56-56-56z" fill="#44454e"/><path d="m352.015 96.03v112c0 52.92-43.07 96-96 96-52.92 0-96-43.07-96-96v-112c0-5.44.45-10.79 1.34-16 .92-5.51 2.32-10.85 4.15-16 13.21-37.24 48.8-64 90.51-64s77.3 26.75 90.51 64c1.83 5.15 3.23 10.49 4.15 16 .89 5.21 1.34 10.561 1.34 16z" fill="#edebfd"/><path d="m236.015 2.141c43.416 9.242 76 47.874 76 93.889v112c0 46.007-32.577 84.646-76 93.889 59.93 12.757 116-33.226 116-93.889v-112c0-60.544-55.946-106.673-116-93.889z" fill="#d2d2fc"/><path d="m416.015 176.03v32c0 39.8-14.71 77.95-41.41 107.41-61.811 68.222-167.467 69.993-231.73 5.73-30.22-30.21-46.86-70.39-46.86-113.14v-32c0-21.442 25.953-31.941 40.97-16.99 4.54 4.56 7.03 10.59 7.03 16.99v32c0 61.76 50.24 112 112 112 61.886 0 112-50.085 112-112v-32c0-21.442 25.953-31.941 40.97-16.99 4.54 4.56 7.03 10.59 7.03 16.99z" fill="#f1cc76"/><path d="m144.015 208.03v-32c0-18.464-20.006-30.027-35.978-20.782 7.201 4.171 11.978 11.914 11.978 20.782v32c0 66.313 57.552 118.409 124.025 111.359-56.149-5.995-100.025-53.644-100.025-111.359z" fill="#ebb15d"/><path d="m376.035 158.147c4.928 4.411 7.98 10.799 7.98 17.884v32c0 82.63-62.803 151.142-144 159.206 95.021 9.433 176-65.238 176-159.206v-32c0-20.727-24.593-31.649-39.98-17.884z" fill="#ebb15d"/><path d="m224.015 88.03c0 13.23-10.77 24-24 24h-40v-16c0-11.21 1.93-21.99 5.49-32h34.51c13.24 0 24 10.68 24 24z" fill="#8286c6"/><path d="m222.645 96.01c-3.32-9.4-12.24-15.98-22.63-15.98h-38.66c.92-5.51 2.32-10.85 4.15-16h34.51c16.61 0 28.13 16.42 22.63 31.98z" fill="#505795"/><path d="m224.015 152.03c0 13.237-10.68 24-24 24h-40v-48h40c13.23 0 24 10.77 24 24z" fill="#8286c6"/><path d="m222.647 160.055c5.519-15.625-6.122-32.025-22.631-32.025h-40v16h40c10.434 0 19.334 6.703 22.631 16.025z" fill="#505795"/><path d="m224.015 216.03c0 13.237-10.68 24-24 24h-34.51c-6.336-17.815-5.49-30.275-5.49-48h40c13.23 0 24 10.77 24 24z" fill="#8286c6"/><path d="m222.647 224.055c5.519-15.625-6.122-32.025-22.631-32.025h-40v16h40c10.434 0 19.334 6.703 22.631 16.025z" fill="#505795"/><path d="m352.015 96.03v16h-40c-21.44 0-31.94-25.95-16.99-40.97 4.56-4.54 10.59-7.03 16.99-7.03h34.51c3.56 10.01 5.49 20.79 5.49 32z" fill="#8286c6"/><path d="m350.675 80.03h-22.66c-16.22 0-27.62 15.66-22.97 30.97-17.31-5.27-22.79-27.11-10.02-39.94 4.56-4.54 10.59-7.03 16.99-7.03h34.51c1.83 5.15 3.23 10.49 4.15 16z" fill="#505795"/><path d="m352.015 128.03v48h-40c-21.442 0-31.941-25.953-16.99-40.97 4.56-4.54 10.59-7.03 16.99-7.03z" fill="#8286c6"/><path d="m328.015 144.03h24v-16h-40c-6.4 0-12.43 2.49-16.99 7.03-12.774 12.83-7.292 34.67 10.025 39.935-4.653-15.301 6.743-30.965 22.965-30.965z" fill="#505795"/><path d="m352.015 192.03c0 17.841.874 30.107-5.49 48h-34.51c-6.4 0-12.43-2.49-16.97-7.01-15.036-15.103-4.365-40.99 16.97-40.99z" fill="#8286c6"/><path d="m328.015 208.03h24v-16h-40c-21.326 0-32.011 25.883-16.97 40.99 2.84 2.827 6.263 4.86 9.995 5.986-4.679-15.487 6.987-30.976 22.975-30.976z" fill="#505795"/></g></svg>