<svg id="Layer_1" enable-background="new 0 0 512.157 512.157" height="512" viewBox="0 0 512.157 512.157" width="512" xmlns="http://www.w3.org/2000/svg"><g><path d="m239.064 329.666c-22.546 21.078-153.024 143.05-186.11 173.98-6.08 5.68-13.76 8.5-21.44 8.5-26.923 0-42.022-32.51-22.99-52.92 8.761-9.371 166.286-177.869 173.99-186.11 3.041-3.267 8.247-3.432 11.5-.2l45.25 45.25c3.25 3.27 3.052 8.473-.2 11.5z" fill="#edebfd"/><path d="m239.264 318.166-45.25-45.25c-3.256-3.235-8.461-3.065-11.5.2-1.784 1.908-14.437 15.442-16.22 17.35l15.59 15.59c12.795 12.795 12.444 33.646-.775 46.004-174.598 163.219-163.081 152.771-166.597 155.05 11.947 7.738 27.734 6.539 38.442-3.464 149.574-139.825-193.127 180.559 186.11-173.98 3.257-3.031 3.445-8.234.2-11.5z" fill="#d2d2fc"/><path d="m335.434 403.026c-9.49 9.469-24.678 9.292-33.96-.01l-192.32-192.32c-9.36-9.36-9.36-24.59 0-33.95 53.576-53.555 139.649-52.691 192.34 0 34.406 34.406 46.36 44.07 58.46 67.36 26.939 51.763 18.15 116.25-24.52 158.92z" fill="#e48c9b"/><path d="m421.024 170.236c-18.07 24.102-4.918 6.566-61.77 82.36-3.538 4.701-10.776 4.123-13.5-1.11-5.62-10.83-12.9-20.75-21.64-29.48-35.748-35.748-42.923-44.943-63.42-55.58-5.232-2.723-5.809-9.975-1.11-13.5 73.945-55.464 57.448-43.093 82.36-61.77 3.18-2.39 7.64-2.07 10.46.74l67.88 67.88c2.81 2.82 3.13 7.28.74 10.46z" fill="#e48c9b"/><path d="m359.954 244.106c-12.048-23.189-23.64-32.54-58.46-67.36-31.239-31.239-74.281-44.392-115.795-38.428 15.134 2.178 29.868 6.875 43.385 13.908 23.18 12.053 32.493 23.603 67.35 58.46 52.243 52.243 53.176 136.406 2.475 189.765l2.565 2.565c9.283 9.303 24.471 9.478 33.96.01 42.593-42.593 51.506-107.067 24.52-158.92z" fill="#cc5b6f"/><path d="m420.284 159.776-67.88-67.88c-2.82-2.81-7.28-3.13-10.46-.74l-18.62 13.96c3.44 5.39 7.48 10.44 12.11 15.07l28.962 28.956c11.243 11.241 12.533 29.026 3.022 41.766-14.235 19.068-32.511 43.484-32.511 43.484 4.096 5.391 7.735 11.097 10.847 17.094 2.718 5.221 9.955 5.821 13.5 1.11 28.907-38.543 32.854-43.791 61.77-82.36 2.39-3.18 2.07-7.64-.74-10.46z" fill="#cc5b6f"/><path d="m505.144 165.426v.01c-28.15 28.13-73.707 28.154-101.83-.01l-56.57-56.56c-28.14-28.14-28.143-73.666 0-101.83 9.362-9.361 24.567-9.373 33.94 0l124.46 124.46c9.35 9.35 9.35 24.57 0 33.93z" fill="#e48c9b"/><path d="m505.144 131.496-124.46-124.46c-9.362-9.362-24.567-9.373-33.94 0-1.008 1.009-1.972 2.05-2.913 3.107l121.353 121.353c9.35 9.35 9.35 24.57 0 33.93 0 .103-11.742 12.773-30.942 18.288 24.498 7.037 51.717.893 70.902-18.278v-.01c9.35-9.36 9.35-24.58 0-33.93z" fill="#cc5b6f"/></g></svg>