<svg id="Layer_1" enable-background="new 0 0 512 512" height="512" viewBox="0 0 512 512" width="512" xmlns="http://www.w3.org/2000/svg"><g><path d="m510.519 251.361c-124.408-174.919-384.441-175.184-509.038 0-1.975 2.776-1.975 6.498 0 9.273 124.407 174.918 384.567 175.007 509.038 0 1.975-2.775 1.975-6.497 0-9.273z" fill="#edebfd"/><path d="m510.52 251.358c-62.79-88.288-166.431-137.669-274.52-130.71 96.081 6.185 181.112 55.614 234.52 130.71 1.97 2.78 1.97 6.5 0 9.28-53.386 75.065-138.403 124.522-234.52 130.71 110.735 7.129 213.285-44.608 274.52-130.71 1.97-2.78 1.97-6.5 0-9.28z" fill="#d2d2fc"/><circle cx="256" cy="255.998" fill="#7acef9" r="104"/><path d="m240 153.229c49.78 7.718 88 50.859 88 102.769s-38.22 95.051-88 102.769c63.353 9.822 120-39.407 120-102.769 0-63.352-56.635-112.594-120-102.769z" fill="#6cb9e7"/><circle cx="256" cy="255.998" fill="#595965" r="48"/><path d="m244 209.516c20.681 5.341 36 24.154 36 46.481 0 22.328-15.319 41.14-36 46.481 30.404 7.853 60-15.236 60-46.481 0-31.272-29.626-54.325-60-46.481z" fill="#44454e"/></g></svg>