<svg id="Layer_1" enable-background="new 0 0 512.057 512.057" height="512" viewBox="0 0 512.057 512.057" width="512" xmlns="http://www.w3.org/2000/svg"><g><circle cx="256" cy="256.029" fill="#edebfd" r="256"/><path d="m437.02 75.009c-54.907-54.907-128.106-79.805-201.02-74.206 130.592 10.026 236 119.037 236 255.226 0 136.26-105.473 245.205-236 255.226 72.937 5.6 146.129-19.315 201.02-74.206 100.045-100.045 100.054-261.987 0-362.04z" fill="#d2d2fc"/><path d="m464 256.029c0 112.434-89.968 206.131-204.58 207.97-55.361.956-108.845-19.619-149.44-59.55-101.282-99.634-74.424-269.473 51.57-333.78 9.95-5.08 21.58-4.62 31.13 1.22 21.338 13.083 20.189 44.391-2.27 55.9-48.37 24.8-78.41 73.94-78.41 128.24 0 79.24 64.46 143.84 143.7 144 39.625 0 75.412-15.511 102.02-42.07 69.165-69.038 50.968-185.663-36.3-230.26-22.216-11.345-23.458-42.705-2.12-55.78 9.58-5.86 21.27-6.31 31.26-1.2 68.819 35.187 113.44 106.102 113.44 185.31z" fill="#e48c9b"/><path d="m166.41 127.789c-48.37 24.8-78.41 73.94-78.41 128.24 0 83.443 71.395 150.442 156.016 143.499-73.795-6.116-132.016-68.193-132.016-143.499 0-54.3 30.04-103.44 78.41-128.24 22.473-11.516 23.596-42.824 2.27-55.9-8.769-5.362-19.288-6.175-28.654-2.341 25.535 10.459 26.819 45.719 2.384 58.241z" fill="#cc5b6f"/><path d="m350.56 70.719c-9.739-4.982-21.089-4.664-30.529.784 68.831 35.892 111.969 106.793 111.969 184.526 0 110.214-85.268 199.374-192.148 207.39 121.402 9.144 224.148-86.372 224.148-207.39 0-79.168-44.586-150.105-113.44-185.31z" fill="#cc5b6f"/><path d="m288 80.029v128c0 17.65-14.36 32-32 32s-32-14.35-32-32v-128c0-17.65 14.36-32 32-32s32 14.35 32 32z" fill="#e48c9b"/><path d="m244 50.372c11.713 4.757 20 16.251 20 29.657v128c0 13.405-8.287 24.9-20 29.657 20.943 8.505 44-6.973 44-29.657v-128c0-22.697-23.067-38.158-44-29.657z" fill="#cc5b6f"/></g></svg>