<svg id="Layer_1" enable-background="new 0 0 512.045 512.045" height="512" viewBox="0 0 512.045 512.045" width="512" xmlns="http://www.w3.org/2000/svg"><g><path d="m320 99.613v312.82c0 16.953-20.089 25.766-32.61 14.64l-13.58-12.07c-35.05-31.15-77.77-53-123.55-63.17-3.66-.81-6.26-4.06-6.26-7.81v-176c0-3.75 2.6-7 6.26-7.81 45.78-10.17 88.5-32.02 123.55-63.17l13.58-12.07c12.521-11.127 32.61-2.312 32.61 14.64z" fill="#edebfd"/><path d="m287.39 84.973-8.679 7.714c1.901 5.002 1.289-15.803 1.289 319.745 0 2.441-.469 4.769-1.289 6.926l8.679 7.714c12.522 11.126 32.61 2.311 32.61-14.64v-312.819c0-16.953-20.089-25.766-32.61-14.64z" fill="#d2d2fc"/><path d="m160 168.023v176c0 4.42-3.58 8-8 8h-56c-52.93 0-96-43.07-96-96s43.07-96 96-96h56c4.42 0 8 3.58 8 8z" fill="#7acef9"/><g fill="#d2d2fc"><path d="m357.26 309.282c-7.063 0-10.711-8.603-5.657-13.657 21.878-21.877 21.881-57.325 0-79.205-3.125-3.125-3.125-8.19 0-11.314 3.124-3.124 8.189-3.125 11.313 0 28.132 28.132 28.134 73.7 0 101.834-1.562 1.561-3.609 2.342-5.656 2.342z"/><path d="m402.51 354.532c-7.063 0-10.711-8.601-5.658-13.656 46.896-46.915 46.904-122.785 0-169.708-3.124-3.125-3.122-8.19.002-11.314 3.125-3.124 8.19-3.122 11.314.002 53.147 53.17 53.152 139.155 0 192.331-1.563 1.564-3.61 2.345-5.658 2.345z"/><path d="m447.76 399.782c-7.065 0-10.711-8.605-5.656-13.658 71.912-71.89 71.922-188.304 0-260.204-3.125-3.124-3.125-8.189-.001-11.314s8.189-3.125 11.314-.001c78.167 78.145 78.177 204.68 0 282.835-1.563 1.562-3.61 2.342-5.657 2.342z"/></g></g></svg>