<svg id="Layer_1" enable-background="new 0 0 512.002 512.002" height="512" viewBox="0 0 512.002 512.002" width="512" xmlns="http://www.w3.org/2000/svg"><g><path d="m432.001 24v468.12c0 16.636-19.26 25.799-32.19 15.61l-138.85-109.62c-2.92-2.31-7-2.31-9.92 0l-138.85 109.61c-12.874 10.181-32.19 1.093-32.19-15.6v-468.12c0-13.23 10.77-24 24-24h304c13.23 0 24 10.77 24 24z" fill="#79cb9c"/><path d="m230.961 398.11c-2.92-2.31-7-2.31-9.92 0l-135.911 107.289c7.11 7.889 18.916 8.761 27.06 2.321l128.81-101.684z" fill="#63ac7d"/><path d="m408.001 0h-40c13.23 0 24 10.77 24 24 0 499.734.948 470.201-1.732 476.197l9.542 7.533c12.923 10.183 32.19 1.034 32.19-15.61v-468.12c0-13.23-10.77-24-24-24z" fill="#63ac7d"/><path d="m360.381 177.26-40.58 39.55 9.58 55.86c2.243 13.05-11.501 23.027-23.22 16.87l-50.16-26.37-50.16 26.37c-11.76 6.172-25.462-3.83-23.22-16.87l9.58-55.86-40.58-39.55c-9.474-9.259-4.273-25.373 8.87-27.3l56.08-8.14 25.08-50.82c5.867-11.884 22.829-11.892 28.7 0l25.08 50.82 56.08 8.14c13.108 1.922 18.371 18.015 8.87 27.3z" fill="#f1cc76"/><path d="m351.511 149.96-56.08-8.14-25.08-50.82c-5.866-11.884-22.83-11.892-28.7 0l-7.358 14.909 14.829 30.049c5.827 11.808 17.093 19.992 30.124 21.883l35.264 5.119c13.108 1.922 18.372 18.015 8.87 27.3l-25.519 24.871c-9.429 9.189-13.731 22.43-11.506 35.407l5.389 31.423c14.922 7.844 16.721 9.429 21.876 9.429 9.644 0 17.483-8.698 15.76-18.72l-9.58-55.86 40.58-39.55c9.475-9.259 4.274-25.373-8.869-27.3z" fill="#ebb15d"/></g></svg>