<svg id="Layer_1" enable-background="new 0 0 512 512" height="512" viewBox="0 0 512 512" width="512" xmlns="http://www.w3.org/2000/svg"><g><path d="m512 336v136c0 22.06-17.94 40-40 40h-432c-22.06 0-40-17.94-40-40v-136c0-13.23 10.77-24 24-24h32c13.23 0 24 10.77 24 24v96h352v-96c0-13.23 10.77-24 24-24h32c13.23 0 24 10.77 24 24z" fill="#c8effd"/><path d="m56 336v96h24v-96c0-13.23-10.77-24-24-24h-24c13.23 0 24 10.77 24 24z" fill="#a0e1fd"/><path d="m488 312c-35.221 0-33.263-.122-36 .34 11.333 1.911 20 11.793 20 23.66v136c0 22.06-17.94 40-40 40h40c22.06 0 40-17.94 40-40v-136c0-13.23-10.77-24-24-24z" fill="#a0e1fd"/><path d="m386.34 160.97c-27.427 27.427-25.679 25.697-26.26 26.22-7.489 6.748-18.397 8.084-27.216 3.424-4.48-2.337-4.003-2.443-28.865-27.304v212.69c0 13.23-10.77 24-24 24h-48c-13.23 0-24-10.77-24-24v-212.69l-23.03 23.03c-9.36 9.36-24.58 9.36-33.94 0l-25.37-25.37c-9.36-9.36-9.36-24.58 0-33.94 11.979-11.979 112.543-112.552 124.681-124.69 3.13-3.12 8.19-3.12 11.32 0l124.68 124.69c9.36 9.36 9.36 24.58 0 33.94z" fill="#7acef9"/><g fill="#6cb9e7"><path d="m386.34 127.03-124.68-124.69c-3.13-3.12-8.19-3.12-11.32 0l-9.84 9.841 114.84 114.849c9.36 9.36 9.36 24.58 0 33.94-27.956 27.956-25.506 25.566-26.84 26.698 9.421 7.991 23.582 7.559 32.47-1.328l25.37-25.37c9.36-9.36 9.36-24.58 0-33.94z"/><path d="m304 160v216c0 13.255-10.745 24-24 24h-8v-208c0-17.624 14.278-32 32-32z"/></g></g></svg>