<svg id="Layer_1" enable-background="new 0 0 512 512" height="512" viewBox="0 0 512 512" width="512" xmlns="http://www.w3.org/2000/svg"><g><path d="m112 0h-88c-13.23 0-24 10.77-24 24v88c0 8.82 7.18 16 16 16h32c8.82 0 16-7.18 16-16v-48h48c8.82 0 16-7.18 16-16v-32c0-8.82-7.18-16-16-16z" fill="#c8effd"/><path d="m112 416h-48v-48c0-8.82-7.18-16-16-16h-32c-8.82 0-16 7.18-16 16v88c0 13.23 10.77 24 24 24h88c8.82 0 16-7.18 16-16v-32c0-8.82-7.18-16-16-16z" fill="#c8effd"/><path d="m368 64h48v48c0 8.82 7.18 16 16 16h32c8.82 0 16-7.18 16-16v-88c0-13.23-10.77-24-24-24h-88c-8.82 0-16 7.18-16 16v32c0 8.82 7.18 16 16 16z" fill="#c8effd"/><path d="m288 0h-96c-8.82 0-16 7.18-16 16v32c0 8.82 7.18 16 16 16h96c8.82 0 16-7.18 16-16v-32c0-8.82-7.18-16-16-16z" fill="#c8effd"/><path d="m288 416h-96c-8.82 0-16 7.18-16 16v32c0 8.82 7.18 16 16 16h96c8.82 0 16-7.18 16-16v-32c0-8.82-7.18-16-16-16z" fill="#c8effd"/><path d="m16 304h32c8.82 0 16-7.18 16-16v-96c0-8.82-7.18-16-16-16h-32c-8.82 0-16 7.18-16 16v96c0 8.82 7.18 16 16 16z" fill="#c8effd"/><path d="m496 416h-16v-48c0-8.82-7.18-16-16-16h-32c-8.82 0-16 7.18-16 16v48h-48c-8.82 0-16 7.18-16 16v32c0 8.82 7.18 16 16 16h48v16c0 8.82 7.18 16 16 16h32c8.82 0 16-7.18 16-16v-16h16c8.82 0 16-7.18 16-16v-32c0-8.82-7.18-16-16-16z" fill="#c8effd"/><path d="m464 176h-32c-8.82 0-16 7.18-16 16v96c0 8.82 7.18 16 16 16h32c8.82 0 16-7.18 16-16v-96c0-8.82-7.18-16-16-16z" fill="#c8effd"/><path d="m320 232v16c0 13.23-10.77 24-24 24h-24v24c0 13.23-10.77 24-24 24h-16c-13.23 0-24-10.77-24-24v-24h-24c-13.23 0-24-10.77-24-24v-16c0-13.23 10.77-24 24-24h24v-24c0-13.23 10.77-24 24-24h16c13.23 0 24 10.77 24 24v24h24c13.23 0 24 10.77 24 24z" fill="#79cb9c"/><g fill="#a0e1fd"><path d="m112 0h-32c8.82 0 16 7.18 16 16v32c0 8.82-7.18 16-16 16h32c8.82 0 16-7.18 16-16v-32c0-8.82-7.18-16-16-16z"/><path d="m32 112c0 8.82-7.18 16-16 16h32c8.82 0 16-7.18 16-16v-48h-32z"/><path d="m48 352h-32c8.82 0 16 7.18 16 16v48h32v-48c0-8.82-7.18-16-16-16z"/><path d="m112 416h-32c8.82 0 16 7.18 16 16v32c0 8.82-7.18 16-16 16h32c8.82 0 16-7.18 16-16v-32c0-8.82-7.18-16-16-16z"/><path d="m448 24v88c0 8.82-7.18 16-16 16h32c8.82 0 16-7.18 16-16v-88c0-13.23-10.77-24-24-24h-32c13.23 0 24 10.77 24 24z"/><path d="m288 0h-32c8.82 0 16 7.18 16 16v32c0 8.82-7.18 16-16 16h32c8.82 0 16-7.18 16-16v-32c0-8.82-7.18-16-16-16z"/><path d="m288 416h-32c8.82 0 16 7.18 16 16v32c0 8.82-7.18 16-16 16h32c8.82 0 16-7.18 16-16v-32c0-8.82-7.18-16-16-16z"/><path d="m48 176h-32c8.82 0 16 7.18 16 16v96c0 8.82-7.18 16-16 16h32c8.82 0 16-7.18 16-16v-96c0-8.82-7.18-16-16-16z"/><path d="m496 416h-16v-48c0-8.82-7.18-16-16-16h-32c8.82 0 16 7.18 16 16v48h16c8.82 0 16 7.18 16 16v32c0 8.82-7.18 16-16 16h-16v16c0 8.82-7.18 16-16 16h32c8.82 0 16-7.18 16-16v-16h16c8.82 0 16-7.18 16-16v-32c0-8.82-7.18-16-16-16z"/><path d="m432 304h32c8.82 0 16-7.18 16-16v-96c0-8.82-7.18-16-16-16h-32c8.82 0 16 7.18 16 16v96c0 8.82-7.18 16-16 16z"/></g><path d="m296 208h-24v-24c0-13.23-10.77-24-24-24-16.549 0-18.922-.425-24 1.377 9.31 3.304 16 12.197 16 22.623v24h24c13.23 0 24 10.77 24 24v16c0 13.23-10.77 24-24 24h-24v24c0 10.426-6.69 19.319-16 22.623 5.146 1.826 7.889 1.377 24 1.377 13.23 0 24-10.77 24-24v-24h24c13.23 0 24-10.77 24-24v-16c0-13.23-10.77-24-24-24z" fill="#63ac7d"/></g></svg>