<svg id="Layer_1" enable-background="new 0 0 512.057 512.057" height="512" viewBox="0 0 512.057 512.057" width="512" xmlns="http://www.w3.org/2000/svg"><g><circle cx="256" cy="256.029" fill="#edebfd" r="256"/><path d="m437.02 75.009c-54.906-54.907-128.106-79.805-201.02-74.206 130.584 10.025 236 119.027 236 255.226 0 136.259-105.472 245.204-236 255.226 72.937 5.6 146.129-19.315 201.02-74.206 100.045-100.046 100.054-261.987 0-362.04z" fill="#d2d2fc"/><path d="m374.97 287.469-163.25 106.46c-7.406 4.837-14.362 6.1-22.18 6.1-20.7 0-37.54-16.84-37.54-37.54v-212.92c0-31.538 35.767-47.063 59.73-31.44l163.24 106.46c22.721 14.813 22.674 48.097 0 62.88z" fill="#79cb9c"/><path d="m374.97 224.589-163.24-106.46c-11.635-7.586-26.542-7.686-37.358-2.888 4.241 1.875-10.153-7.228 168.598 109.348 22.721 14.813 22.674 48.098 0 62.88-177.235 115.58-164.45 107.511-168.6 109.347 10.656 4.728 25.625 4.77 37.35-2.887l163.25-106.46c22.721-14.813 22.674-48.098 0-62.88z" fill="#63ac7d"/></g></svg>