<svg id="Layer_1" enable-background="new 0 0 512.1 512.1" height="512" viewBox="0 0 512.1 512.1" width="512" xmlns="http://www.w3.org/2000/svg"><g><path d="m488.05 119.48v352.62c0 22.06-17.94 40-40 40h-384c-22.06 0-40-17.94-40-40v-432c0-22.06 17.94-40 40-40h284.77c9.05 0 17.93 3.11 24.99 8.76l99.23 79.39c9.54 7.63 15.01 19.01 15.01 31.23z" fill="#595965"/><path d="m473.04 88.25-99.23-79.39c-7.06-5.65-15.94-8.76-24.99-8.76h-40c9.05 0 17.93 3.11 24.99 8.76l99.23 79.39c9.54 7.63 15.01 19.01 15.01 31.23v352.62c0 22.06-17.94 40-40 40h40c22.06 0 40-17.94 40-40v-352.62c0-12.22-5.47-23.6-15.01-31.23z" fill="#44454e"/><path d="m368.93 10.57-.88 77.62c0 21.97-17.94 39.91-40 39.91h-208c-22.06 0-40-17.94-40-40v-80c0-4.42 3.58-8 8-8h260.78c5.2 0 10.29 1 15.12 2.97 3.04 1.24 5.02 4.22 4.98 7.5z" fill="#edebfd"/><path d="m363.95 3.07c-9.598-3.915-14.042-2.97-47.12-2.97 5.2 0 10.29 1 15.12 2.97 3.04 1.24 5.02 4.22 4.98 7.5l-.88 77.62c0 21.97-17.94 39.91-40 39.91h32c22.06 0 40-17.94 40-39.91l.88-77.62c.04-3.28-1.94-6.26-4.98-7.5z" fill="#d2d2fc"/><path d="m400.05 376.1v128c0 4.42-3.58 8-8 8h-304c-4.42 0-8-3.58-8-8v-128c0-4.42 3.58-8 8-8h304c4.42 0 8 3.58 8 8z" fill="#edebfd"/><path d="m392.05 368.1h-32c4.42 0 8 3.58 8 8v128c0 4.42-3.58 8-8 8h32c4.42 0 8-3.58 8-8v-128c0-4.42-3.58-8-8-8z" fill="#d2d2fc"/><path d="m400.05 344.1v40h-320v-40c0-22.091 17.909-40 40-40h240c22.091 0 40 17.909 40 40z" fill="#9da0df"/><path d="m360.05 304.1h-32c22.091 0 40 17.909 40 40v40h32v-40c0-22.091-17.909-40-40-40z" fill="#8286c6"/><path d="m312.05.1v64c0 8.837-7.163 16-16 16h-48c-8.837 0-16-7.163-16-16v-64h80z" fill="#9da0df"/><path d="m280.05.1v64c0 8.836-7.163 16-16 16h32c8.837 0 16-7.164 16-16v-64h-32z" fill="#8286c6"/></g></svg>