<svg id="Layer_1" enable-background="new 0 0 512 512" height="512" viewBox="0 0 512 512" width="512" xmlns="http://www.w3.org/2000/svg"><g><path d="m392 104v368c0 22.06-17.94 40-40 40h-192c-22.06 0-40-17.94-40-40v-368c0-22.06 17.94-40 40-40h40v-40c0-13.23 10.77-24 24-24h64c13.23 0 24 10.77 24 24v40h40c22.06 0 40 17.94 40 40z" fill="#edebfd"/><path d="m280 24v40h32v-40c0-13.23-10.77-24-24-24h-32c13.23 0 24 10.77 24 24z" fill="#d2d2fc"/><path d="m352 64h-32c22.06 0 40 17.94 40 40v368c0 22.06-17.94 40-40 40h32c22.06 0 40-17.94 40-40v-368c0-22.06-17.94-40-40-40z" fill="#d2d2fc"/><path d="m359.637 111.786.725 351.999c.018 8.82-7.147 16.015-15.967 16.033l-176 .363c-8.82.018-16.015-7.147-16.033-15.967l-.725-351.999c-.018-8.82 7.147-16.015 15.967-16.033l176-.363c8.82-.018 16.015 7.147 16.033 15.967z" fill="#79cb9c"/><path d="m344 96h-32c8.82 0 16 7.18 16 16v352c0 8.82-7.18 16-16 16h32c8.82 0 16-7.18 16-16v-352c0-8.82-7.18-16-16-16z" fill="#63ac7d"/></g></svg>