<svg id="Layer_1" enable-background="new 0 0 512.09 512.09" height="512" viewBox="0 0 512.09 512.09" width="512" xmlns="http://www.w3.org/2000/svg"><g><path d="m464.032 307.85c-12.513 13.078-22.938 17.112-48 29.91-240.899 123.009-195.371 99.773-295.93 151.11-43.73 22.291-96.07-9.326-96.07-58.82v-363.92c0-49.025 51.878-81.345 96.07-58.82l320.82 163.82c51.525 26.343 63.104 94.945 23.11 136.72z" fill="#f1cc76"/><path d="m475.322 202.98c-8.31-13.58-20.2-24.59-34.4-31.85l-320.82-163.82c-16.389-8.354-36.097-9.723-54.068-2.707 4.693 1.821-16.221-8.675 326.888 166.527 62.626 32.018 62.805 121.81 0 153.92-342.605 174.944-321.971 164.619-326.888 166.527 17.973 7.016 37.681 5.646 54.068-2.707l320.82-163.82c44.475-22.738 60.876-78.804 34.4-122.07z" fill="#ebb15d"/><path d="m464.032 244.2v63.65c-12.513 13.078-22.938 17.112-48 29.91v-32.22l-103.194 23.807c-14.52 3.35-24.806 16.279-24.806 31.181v42.592l-111.81 57.1c1.817-25.402 29.819-47.784 63.81-43.65v-131.75c0-11.25 7.65-20.87 18.61-23.39l175.99-40.62c15.087-3.467 29.4 7.981 29.4 23.39z" fill="#ebb15d"/><path d="m440.032 244.2v187.89c0 26.47-25.12 48-56 48s-56-21.53-56-48c0-28.404 29.302-51.74 64-47.52v-79.03l-128 29.53v129.02c0 26.47-25.12 48-56 48-33.145 0-60.027-25.026-55.51-54.33 3.972-25.962 32.038-45.017 63.51-41.19v-131.75c0-11.25 7.65-20.87 18.61-23.39l175.99-40.62c15.087-3.467 29.4 7.981 29.4 23.39z" fill="#e48c9b"/><g fill="#cc5b6f"><path d="m248.032 339.07v129.02c0 19.282-13.336 35.932-32.512 43.559 27.35-3.148 48.512-23.267 48.512-47.559v-128.711z"/><path d="m410.632 220.81-13.689 3.16c7.008 4.483 11.089 12.066 11.089 20.23v187.89c0 21.705-16.895 40.078-40 45.993 35.938 9.201 72-14.019 72-45.993v-187.89c0-15.418-14.322-26.855-29.4-23.39z"/></g></g></svg>