<svg id="Layer_1" enable-background="new 0 0 512 512" height="512" viewBox="0 0 512 512" width="512" xmlns="http://www.w3.org/2000/svg"><g><path d="m240 40v224c0 22.06-17.94 40-40 40h-160c-22.06 0-40-17.94-40-40v-224c0-22.06 17.94-40 40-40h160c22.06 0 40 17.94 40 40z" fill="#7acef9"/><path d="m200 0h-40c22.06 0 40 17.94 40 40v224c0 22.06-17.94 40-40 40h40c22.06 0 40-17.94 40-40v-224c0-22.06-17.94-40-40-40z" fill="#6cb9e7"/><path d="m512 248v224c0 22.06-17.94 40-40 40h-160c-22.06 0-40-17.94-40-40v-224c0-22.06 17.94-40 40-40h160c22.06 0 40 17.94 40 40z" fill="#7acef9"/><path d="m472 208h-40c22.06 0 40 17.94 40 40v224c0 22.06-17.94 40-40 40h40c22.06 0 40-17.94 40-40v-224c0-22.06-17.94-40-40-40z" fill="#6cb9e7"/><path d="m240 376v96c0 22.06-17.94 40-40 40h-160c-22.06 0-40-17.94-40-40v-96c0-22.06 17.94-40 40-40h160c22.06 0 40 17.94 40 40z" fill="#7acef9"/><path d="m200 336h-40c22.06 0 40 17.94 40 40v96c0 22.06-17.94 40-40 40h40c22.06 0 40-17.94 40-40v-96c0-22.06-17.94-40-40-40z" fill="#6cb9e7"/><path d="m472 160h-160c-22.091 0-40-17.909-40-40v-80c0-22.091 17.909-40 40-40h160c22.091 0 40 17.909 40 40v80c0 22.091-17.909 40-40 40z" fill="#7acef9"/><path d="m472 0h-40c22.091 0 40 17.909 40 40v80c0 22.091-17.909 40-40 40h40c22.091 0 40-17.909 40-40v-80c0-22.091-17.909-40-40-40z" fill="#6cb9e7"/></g></svg>