<svg id="Layer_1" enable-background="new 0 0 512 512" height="512" viewBox="0 0 512 512" width="512" xmlns="http://www.w3.org/2000/svg"><g><path d="m480 56v32c0 4.42-3.58 8-8 8h-432c-4.42 0-8-3.58-8-8v-32c0-13.23 10.77-24 24-24h400c13.23 0 24 10.77 24 24z" fill="#edebfd"/><path d="m456 32h-40c13.23 0 24 10.77 24 24v32c0 4.42-3.58 8-8 8h40c4.42 0 8-3.58 8-8v-32c0-13.23-10.77-24-24-24z" fill="#d2d2fc"/><path d="m480 232v48c0 4.42-3.58 8-8 8h-432c-4.42 0-8-3.58-8-8v-48c0-4.42 3.58-8 8-8h432c4.42 0 8 3.58 8 8z" fill="#edebfd"/><path d="m480 424v32c0 13.23-10.77 24-24 24h-400c-13.23 0-24-10.77-24-24v-32c0-4.42 3.58-8 8-8h432c4.42 0 8 3.58 8 8z" fill="#edebfd"/><path d="m472 224c-41.786 0-448.057 0-432 0-4.418 0-8 3.582-8 8v24h392c8.837 0 16 7.163 16 16v8c0 4.42-3.58 8-8 8h40c4.418 0 8-3.582 8-8 0-1.634 0-49.554 0-48 0-4.418-3.582-8-8-8z" fill="#d2d2fc"/><path d="m512 104v112c0 13.23-10.77 24-24 24h-464c-13.23 0-24-10.77-24-24v-112c0-13.23 10.77-24 24-24h464c13.23 0 24 10.77 24 24z" fill="#7acef9"/><path d="m488 80h-40c13.23 0 24 10.77 24 24v112c0 13.23-10.77 24-24 24h40c13.23 0 24-10.77 24-24v-112c0-13.23-10.77-24-24-24z" fill="#6cb9e7"/><path d="m472 416c-41.786 0-448.057 0-432 0-4.418 0-8 3.582-8 8v24h400c4.418 0 8 3.582 8 8 0 13.193-10.734 24-24 24h40c13.255 0 24-10.745 24-24 0-.165 0-33.974 0-32 0-4.418-3.582-8-8-8z" fill="#d2d2fc"/><path d="m512 296v112c0 13.23-10.77 24-24 24h-464c-13.23 0-24-10.77-24-24v-112c0-13.23 10.77-24 24-24h464c13.23 0 24 10.77 24 24z" fill="#7acef9"/><path d="m488 272h-40c13.23 0 24 10.77 24 24v112c0 13.23-10.77 24-24 24h40c13.23 0 24-10.77 24-24v-112c0-13.23-10.77-24-24-24z" fill="#6cb9e7"/><path d="m88 144v32c0 13.23-10.77 24-24 24s-24-10.77-24-24v-32c0-13.23 10.77-24 24-24s24 10.77 24 24z" fill="#c8effd"/><path d="m56 121.377c9.31 3.304 16 12.197 16 22.623v32c0 10.426-6.69 19.319-16 22.623 15.589 5.532 32-6.114 32-22.623v-32c0-16.55-16.442-28.144-32-22.623z" fill="#a0e1fd"/><path d="m152 144v32c0 13.23-10.77 24-24 24s-24-10.77-24-24v-32c0-13.23 10.77-24 24-24s24 10.77 24 24z" fill="#c8effd"/><path d="m120 121.377c9.31 3.304 16 12.197 16 22.623v32c0 10.426-6.69 19.319-16 22.623 15.589 5.532 32-6.114 32-22.623v-32c0-16.55-16.442-28.144-32-22.623z" fill="#a0e1fd"/><path d="m216 144v32c0 13.23-10.77 24-24 24s-24-10.77-24-24v-32c0-13.23 10.77-24 24-24s24 10.77 24 24z" fill="#c8effd"/><path d="m184 121.377c9.31 3.304 16 12.197 16 22.623v32c0 10.426-6.69 19.319-16 22.623 15.589 5.532 32-6.114 32-22.623v-32c0-16.55-16.442-28.144-32-22.623z" fill="#a0e1fd"/><path d="m472 160c0 13.23-10.77 24-24 24h-176c-13.23 0-24-10.77-24-24s10.77-24 24-24h176c13.23 0 24 10.77 24 24z" fill="#c8effd"/><path d="m448 136h-32c13.23 0 24 10.77 24 24s-10.77 24-24 24h32c13.23 0 24-10.77 24-24s-10.77-24-24-24z" fill="#a0e1fd"/><path d="m88 336v32c0 13.23-10.77 24-24 24s-24-10.77-24-24v-32c0-13.23 10.77-24 24-24s24 10.77 24 24z" fill="#c8effd"/><path d="m56 313.377c9.31 3.304 16 12.197 16 22.623v32c0 10.426-6.69 19.319-16 22.623 15.589 5.532 32-6.114 32-22.623v-32c0-16.55-16.442-28.144-32-22.623z" fill="#a0e1fd"/><path d="m152 336v32c0 13.23-10.77 24-24 24s-24-10.77-24-24v-32c0-13.23 10.77-24 24-24s24 10.77 24 24z" fill="#c8effd"/><path d="m120 313.377c9.31 3.304 16 12.197 16 22.623v32c0 10.426-6.69 19.319-16 22.623 15.589 5.532 32-6.114 32-22.623v-32c0-16.55-16.442-28.144-32-22.623z" fill="#a0e1fd"/><path d="m216 336v32c0 13.23-10.77 24-24 24s-24-10.77-24-24v-32c0-13.23 10.77-24 24-24s24 10.77 24 24z" fill="#c8effd"/><path d="m184 313.377c9.31 3.304 16 12.197 16 22.623v32c0 10.426-6.69 19.319-16 22.623 15.589 5.532 32-6.114 32-22.623v-32c0-16.55-16.442-28.144-32-22.623z" fill="#a0e1fd"/><path d="m472 352c0 13.23-10.77 24-24 24h-176c-13.23 0-24-10.77-24-24s10.77-24 24-24h176c13.23 0 24 10.77 24 24z" fill="#c8effd"/><path d="m448 328h-32c13.23 0 24 10.77 24 24s-10.77 24-24 24h32c13.23 0 24-10.77 24-24s-10.77-24-24-24z" fill="#a0e1fd"/></g></svg>