<svg id="Layer_1" enable-background="new 0 0 512.008 512.008" height="512" viewBox="0 0 512.008 512.008" width="512" xmlns="http://www.w3.org/2000/svg"><g><path d="m356.434 331.219c-11.37 11.37-29.37 13.01-42.81 3.9-34.66-23.487-80.448-23.576-115.24 0-23.242 15.763-55.187-2.12-52.52-30.83.93-9.94 6.18-18.86 14.4-24.47 57.522-39.284 133.749-39.427 191.48 0 17.349 11.84 19.51 36.58 4.69 51.4z" fill="#edebfd"/><path d="m366.144 304.288c-.93-9.94-6.18-18.86-14.4-24.47-32.566-22.241-71.43-32.274-110.74-28.841 28.958 2.529 56.617 12.367 80.74 28.841 21.111 14.407 18.741 46.369-4.044 57.667 23.704 11.683 50.879-6.995 48.444-33.197z" fill="#d2d2fc"/><path d="m429.514 258.138c-12.109 12.109-31.396 13.214-44.85 2.36-74.684-60.209-182.119-60.626-257.32 0-22.598 18.217-56.204 1.052-54.65-27.93.5-9.47 5.02-18.32 12.39-24.27 99.486-80.302 241.948-80.63 341.84 0 15.513 12.525 16.659 35.772 2.59 49.84z" fill="#edebfd"/><path d="m439.314 232.569c-.5-9.47-5.02-18.32-12.39-24.27-52.019-41.988-117.741-63.712-186.42-59.862 56.068 3.143 110.321 23.46 155.42 59.862 18.705 15.101 15.854 44.661-5.63 55.879 22.984 11.973 50.413-5.65 49.02-31.609z" fill="#d2d2fc"/><path d="m502.164 185.489c-12.363 12.363-32.465 13.057-45.72 1.65-115.193-99.139-285.886-98.967-400.88 0-22.109 18.999-56.613 2.711-55.54-26.66.35-9.31 4.6-18.13 11.66-24.21 140.321-120.784 348.369-120.741 488.64 0 14.798 12.743 15.65 35.41 1.84 49.22z" fill="#edebfd"/><path d="m511.984 160.479c-.35-9.31-4.6-18.13-11.66-24.21-71.789-61.794-164.85-94.333-260.32-90.25 83.955 3.587 164.495 35.312 228.32 90.25 17.911 15.424 14.622 43.937-5.903 54.968 22.654 12.17 50.521-4.55 49.563-30.758z" fill="#d2d2fc"/><circle cx="256.004" cy="410.319" fill="#7acef9" r="56"/><path d="m244.004 355.621c25.159 5.495 44 27.89 44 54.697s-18.841 49.202-44 54.697c35.041 7.654 68-19.034 68-54.697 0-35.733-33.018-62.338-68-54.697z" fill="#6cb9e7"/></g></svg>