<svg id="Layer_1" enable-background="new 0 0 512.057 512.057" height="512" viewBox="0 0 512.057 512.057" width="512" xmlns="http://www.w3.org/2000/svg"><g><circle cx="256" cy="256.029" fill="#edebfd" r="256"/><path d="m437.02 75.009c-54.906-54.907-128.106-79.805-201.02-74.206 130.586 10.026 236 119.029 236 255.226 0 136.259-105.472 245.204-236 255.226 72.937 5.6 146.129-19.315 201.02-74.206 100.045-100.046 100.054-261.987 0-362.04z" fill="#d2d2fc"/><path d="m368.5 191.529c0 43.432-24.925 82.122-62.88 100.68-15.49 7.57-25.12 22.62-25.12 39.29v4.03c0 13.23-10.77 24-24 24s-24-10.77-24-24v-4.03c0-35.15 19.94-66.729 52.05-82.42 39.784-19.452 48.076-71.904 17.19-102.79-12.1-12.1-28.17-18.76-45.24-18.76-35.29 0-64 28.71-64 64 0 13.597-11.254 24.465-24.85 23.99-12.84-.45-23.22-11.49-23.15-24.61.34-61.41 50.58-111.38 112-111.38 61.687 0 112 49.976 112 112z" fill="#f1cc76"/><path d="m244.538 128.666c-39.743-7.542-76.038 23.035-76.038 62.862 0 8.806-4.7 16.506-11.904 20.736 15.839 9.369 35.904-2.335 35.904-20.736 0-31.201 22.448-57.242 52.038-62.862z" fill="#ebb15d"/><path d="m360.02 148.669c-18.526-44.717-64.761-73.931-115.486-68.497 55.892 5.947 99.966 53.309 99.966 111.356 0 43.432-24.925 82.122-62.88 100.68-15.49 7.57-25.12 22.62-25.12 39.29v4.03c0 8.861-4.835 16.612-12 20.77 15.804 9.169 36-2.213 36-20.77v-4.03c0-16.67 9.63-31.72 25.12-39.29 53.653-26.234 76.822-89.461 54.4-143.539z" fill="#ebb15d"/><circle cx="256.5" cy="407.529" fill="#f1cc76" r="32"/><path d="m248.5 376.541c13.789 3.562 24 16.108 24 30.988s-10.211 27.426-24 30.988c20.235 5.227 40-10.124 40-30.988 0-20.907-19.799-36.206-40-30.988z" fill="#ebb15d"/></g></svg>