<svg id="Layer_1" enable-background="new 0 0 512.057 512.057" height="512" viewBox="0 0 512.057 512.057" width="512" xmlns="http://www.w3.org/2000/svg"><g><path d="m512 256.029c0 141.486-114.497 256-256 256-141.486 0-256-114.497-256-256 0-17.64 14.35-32 32-32s32 14.36 32 32c0 105.87 86.13 192 192 192s192-86.13 192-192-86.13-192-192-192c-55.41 0-106.71 23.13-143.12 64h23.12c8.82 0 16 7.18 16 16v32c0 8.82-7.18 16-16 16h-112c-8.82 0-16-7.18-16-16v-120c0-8.82 7.18-16 16-16h32c8.82 0 16 7.18 16 16v22c48.13-49.81 114.07-78 184-78 141.486 0 256 114.497 256 256z" fill="#79cb9c"/><g fill="#63ac7d"><path d="m64 256.029c0-24.782-26.959-39.897-48-27.695 9.556 5.542 16 15.879 16 27.695 0 111.83 95.761 200.632 208 191.328-98.411-8.158-176-90.847-176-191.328z"/><path d="m437.02 75.009c-51.921-51.921-122.593-79.055-196.972-74.47 133.783 8.223 239.952 119.186 239.952 255.49 0 136.217-106.098 247.288-240 255.492 74.136 4.537 144.84-22.293 197.02-74.472 100.045-100.046 100.054-261.987 0-362.04z"/><path d="m239.902 64.692c-58.956-4.857-117.745 17.003-159.022 63.336h23.12c8.82 0 16 7.18 16 16v32c0 8.82-7.18 16-16 16h32c8.82 0 16-7.18 16-16v-32c0-8.82-7.18-16-16-16h-23.12c32.856-36.88 77.838-59.308 127.022-63.336z"/></g></g></svg>