<svg id="Layer_1" enable-background="new 0 0 512.033 512.033" height="512" viewBox="0 0 512.033 512.033" width="512" xmlns="http://www.w3.org/2000/svg"><g><circle cx="256.016" cy="256.016" fill="#edebfd" r="176"/><path d="m236.016 81.159c87.666 9.961 156 84.57 156 174.857s-68.334 164.896-156 174.857c104.825 11.911 196-70.337 196-174.857 0-104.656-91.308-186.752-196-174.857z" fill="#d2d2fc"/><path d="m392.016 256.016c0 68.47-51.16 126.48-119.01 134.95-4.764.578-8.99-3.114-8.99-7.94v-254.02c0-4.854 4.259-8.521 8.99-7.94 67.85 8.47 119.01 66.48 119.01 134.95z" fill="#595965"/><path d="m273.006 121.066c-3.543-.435-7.101 1.53-8.457 5.099 55.799 17.39 95.467 69.562 95.467 129.852 0 60.289-39.669 112.461-95.467 129.852 1.33 3.497 4.83 5.539 8.457 5.099 67.85-8.47 119.01-66.48 119.01-134.95 0-68.472-51.16-126.482-119.01-134.952z" fill="#44454e"/><circle cx="256.016" cy="32.016" fill="#edebfd" r="32"/><path d="m248.016 1.028c13.789 3.562 24 16.108 24 30.988s-10.211 27.426-24 30.988c20.235 5.227 40-10.124 40-30.988 0-20.907-19.799-36.206-40-30.988z" fill="#d2d2fc"/><circle cx="480.016" cy="256.016" fill="#edebfd" r="32"/><path d="m472.016 225.028c13.789 3.562 24 16.108 24 30.988s-10.211 27.426-24 30.988c20.235 5.227 40-10.124 40-30.988 0-20.907-19.799-36.206-40-30.988z" fill="#d2d2fc"/><circle cx="256.016" cy="480.016" fill="#edebfd" r="32"/><path d="m248.016 449.028c13.789 3.562 24 16.108 24 30.988s-10.211 27.426-24 30.988c20.235 5.227 40-10.124 40-30.988 0-20.907-19.799-36.206-40-30.988z" fill="#d2d2fc"/><circle cx="32.016" cy="256.016" fill="#edebfd" r="32"/><path d="m24.016 225.028c13.789 3.562 24 16.108 24 30.988s-10.211 27.426-24 30.988c20.235 5.227 40-10.124 40-30.988 0-20.907-19.799-36.206-40-30.988z" fill="#d2d2fc"/><path d="m129.626 97.626c0 17.764-14.377 31.98-32 31.98-17.627 0-32-14.215-32-31.98 0-17.692 14.307-32 32-32 17.55 0 32 14.168 32 32z" fill="#edebfd"/><path d="m127.206 85.366c-6.227-15.001-22.781-23.061-38.581-18.458 13.173 3.84 23.001 16.023 23.001 30.717 0 14.523-9.64 26.805-23.002 30.696 25.945 7.553 48.804-18.271 38.582-42.955z" fill="#d2d2fc"/><path d="m446.406 97.626c0 28.368-34.419 42.807-54.63 22.63-12.52-12.541-12.485-32.776 0-45.26 20.287-20.253 54.63-5.583 54.63 22.63z" fill="#edebfd"/><path d="m437.036 74.996c-8.043-8.043-19.234-10.907-29.629-8.597 14.233 3.16 24.999 15.857 24.999 31.227 0 15.106-10.468 27.97-24.998 31.202 10.861 2.418 21.969-.914 29.628-8.572 12.522-12.543 12.483-32.777 0-45.26z" fill="#d2d2fc"/><path d="m446.406 414.406c0 17.692-14.307 32-32 32-28.445 0-42.754-34.472-22.63-54.63 20.234-20.217 54.63-5.627 54.63 22.63z" fill="#edebfd"/><path d="m407.406 383.201c5.731 1.275 11.179 4.127 15.63 8.575 18.042 18.073 8.567 48.485-15.629 53.857 20.101 4.466 38.999-10.782 38.999-31.227 0-20.476-18.926-35.671-39-31.205z" fill="#d2d2fc"/><path d="m129.626 414.406c0 17.682-14.307 32-32 32-17.692 0-32-14.307-32-32 0-17.766 14.374-31.98 32-31.98 17.627 0 32 14.216 32 31.98z" fill="#edebfd"/><path d="m120.256 391.776c-8.388-8.387-20.552-11.289-31.63-8.067 13.115 3.815 23 15.939 23 30.698 0 14.786-9.92 26.904-23.001 30.717 10.907 3.178 23.062.468 31.631-8.087 12.481-12.482 12.524-32.716 0-45.261z" fill="#d2d2fc"/></g></svg>