<svg id="Layer_1" enable-background="new 0 0 512.031 512.031" height="512" viewBox="0 0 512.031 512.031" width="512" xmlns="http://www.w3.org/2000/svg"><g><g fill="#d2d2fc"><path d="m380.016 488.008h-36c-4.418 0-8-3.582-8-8s3.582-8 8-8h36c28.673 0 52-23.327 52-52v-44c0-4.418 3.582-8 8-8s8 3.582 8 8v44c0 37.495-30.505 68-68 68z"/><path d="m72.016 304.008c-4.418 0-8-3.582-8-8v-64c0-4.418 3.582-8 8-8s8 3.582 8 8v64c0 4.418-3.582 8-8 8z"/><path d="m440.016 304.008c-4.418 0-8-3.582-8-8v-64c0-4.418 3.582-8 8-8s8 3.582 8 8v64c0 4.418-3.582 8-8 8z"/></g><path d="m464.016 312.008v48c0 13.23-10.77 24-24 24h-32c-4.42 0-8-3.58-8-8v-80c0-4.42 3.58-8 8-8h32c13.23 0 24 10.77 24 24z" fill="#7acef9"/><path d="m112.016 296.008v80c0 4.42-3.58 8-8 8h-32c-13.23 0-24-10.77-24-24v-48c0-13.23 10.77-24 24-24h32c4.419 0 8 3.58 8 8z" fill="#7acef9"/><path d="m176.016 280.008v112c0 13.23-10.77 24-24 24h-16c-22.06 0-40-17.94-40-40v-80c0-22.06 17.94-40 40-40h16c13.23 0 24 10.77 24 24z" fill="#595965"/><path d="m152.016 256.008c-16.756 0-19.269-.293-25.022 1.038 9.839 2.998 17.022 12.158 17.022 22.962v112c0 10.804-7.184 19.964-17.022 22.962 5.826 1.348 8.39 1.038 25.022 1.038 13.23 0 24-10.77 24-24v-112c0-13.23-10.77-24-24-24z" fill="#44454e"/><path d="m464.016 208.008v8c0 13.23-10.77 24-24 24h-16c-13.23 0-24-10.77-24-24v-8c0-79.4-64.6-144-144-144s-144 64.6-144 144v8c0 13.23-10.77 24-24 24h-16c-13.23 0-24-10.77-24-24v-8c0-114.69 93.31-208 208-208s208 93.31 208 208z" fill="#7acef9"/><path d="m80.016 208.008v8c0 10.426-6.69 19.319-16 22.623 5.146 1.826 7.889 1.377 24 1.377 13.23 0 24-10.77 24-24v-8c0-73.992 56.103-135.121 128-143.106-85.672-9.513-160 57.769-160 143.106z" fill="#6cb9e7"/><path d="m240.016.617c107.243 8.197 192 98.083 192 207.391v8c0 10.426-6.69 19.319-16 22.623 5.146 1.826 7.889 1.377 24 1.377 13.23 0 24-10.77 24-24v-8c0-120.741-103.026-216.641-224-207.391z" fill="#6cb9e7"/><path d="m416.016 296.008v80c0 22.06-17.94 40-40 40h-16c-13.23 0-24-10.77-24-24v-112c0-13.23 10.77-24 24-24h16c22.06 0 40 17.94 40 40z" fill="#595965"/><path d="m432.016 296.008c0 86.054.334 82.374-.8 88h-23.2c-4.42 0-8-3.58-8-8v-80c0-4.42 3.58-8 8-8h23.2c.52 2.58.8 5.26.8 8z" fill="#6cb9e7"/><path d="m376.016 256.008c-16.681 0-18.473-.334-22.978 1.038 17.726 4.103 30.978 20.005 30.978 38.962v80c0 18.957-13.252 34.859-30.978 38.962 4.521 1.377 6.347 1.038 22.978 1.038 22.06 0 40-17.94 40-40v-80c0-22.06-17.94-40-40-40z" fill="#44454e"/><circle cx="320.016" cy="480.008" fill="#595965" r="32"/><path d="m308.016 450.353c26.624 10.818 26.603 48.501 0 59.311 20.979 8.524 44-7.026 44-29.655 0-22.653-23.039-38.173-44-29.656z" fill="#44454e"/></g></svg>