<svg id="Layer_1" enable-background="new 0 0 512 512" height="512" viewBox="0 0 512 512" width="512" xmlns="http://www.w3.org/2000/svg"><g><path d="m343.09 256c-.02.01-.02.02-.02.02 35.66 22.25 56.93 60.63 56.93 102.65v97.33c0 4.42-3.58 8-8 8h-272c-4.42 0-8-3.58-8-8v-97.33c0-42.02 21.27-80.4 56.91-102.67-35.64-22.27-56.91-60.65-56.91-102.67v-97.33c0-4.42 3.58-8 8-8h272c4.42 0 8 3.58 8 8v97.33c0 42.02-21.27 80.4-56.91 102.67z" fill="#c8effd"/><path d="m400 153.33v-97.33c0-4.42-3.58-8-8-8h-32c4.42 0 8 3.58 8 8v97.33c0 42.02-21.27 80.4-56.91 102.67-.02.01-.02.02-.02.02 35.66 22.25 56.93 60.63 56.93 102.65v97.33c0 4.42-3.58 8-8 8h32c4.42 0 8-3.58 8-8v-97.33c0-42.02-21.27-80.4-56.93-102.65 0-.31 56.93-31.031 56.93-102.69z" fill="#a0e1fd"/><path d="m448 32c0 17.64-14.84 32-33.09 32h-317.82c-18.25 0-33.09-14.36-33.09-32s14.84-32 33.09-32h317.82c18.25 0 33.09 14.36 33.09 32z" fill="#ebb19c"/><path d="m414.91 0h-32c18.25 0 33.09 14.36 33.09 32s-14.84 32-33.09 32h32c18.25 0 33.09-14.36 33.09-32s-14.84-32-33.09-32z" fill="#e58d72"/><path d="m448 480c0 17.64-14.84 32-33.09 32h-317.82c-18.25 0-33.09-14.36-33.09-32s14.84-32 33.09-32h317.82c18.25 0 33.09 14.36 33.09 32z" fill="#ebb19c"/><path d="m414.91 448h-40c18.25 0 33.09 14.36 33.09 32s-14.84 32-33.09 32h40c18.25 0 33.09-14.36 33.09-32s-14.84-32-33.09-32z" fill="#e58d72"/><path d="m368 144c0 37.34-19.89 72.46-51.9 91.67l-24.22 14.53c-2.39 1.439-3.88 4.06-3.88 6.859v22.941c0 17.64-14.36 32-32 32-17.65 0-32-14.36-32-32v-22.94c0-2.8-1.49-5.42-3.88-6.859l-24.22-14.53c-32.01-19.211-51.9-54.331-51.9-91.671 0-4.42 3.58-8 8-8h208c4.42 0 8 3.58 8 8z" fill="#f1cc76"/><path d="m360 136h-32c4.42 0 8 3.58 8 8 0 37.34-19.89 72.46-51.9 91.67l-24.22 14.53c-2.39 1.439-3.88 4.06-3.88 6.859v22.941c0 11.814-6.447 22.151-16.002 27.693 21.072 12.228 48.002-2.951 48.002-27.693v-22.94c0-2.8 1.49-5.42 3.88-6.859l24.22-14.53c32.01-19.211 51.9-54.331 51.9-91.671 0-4.42-3.58-8-8-8z" fill="#ebb15d"/><path d="m368 424c0 4.42-3.58 8-8 8h-208c-4.42 0-8-3.58-8-8 0-52.93 43.07-96 96-96h32c52.93 0 96 43.07 96 96z" fill="#f1cc76"/><path d="m272 328h-32c52.93 0 96 43.07 96 96 0 4.42-3.58 8-8 8h32c4.42 0 8-3.58 8-8 0-52.93-43.07-96-96-96z" fill="#ebb15d"/></g></svg>