<svg id="Flat" height="512" viewBox="0 0 512 512" width="512" xmlns="http://www.w3.org/2000/svg"><path d="m240 400h-112v-48h32v-24l-56-32-56 32v24h32v64a32 32 0 0 0 32 32h128z" fill="#f6bc1b"/><path d="m256 112h128v72h-32v24l56 32 56-32v-24h-32v-88a32 32 0 0 0 -32-32h-144z" fill="#f6bc1b"/><path d="m120 264 48-168v-32l-8-40h64l-8 40v32l35.253 123.385a35 35 0 0 1 -33.653 44.615z" fill="#a17834"/><path d="m168 64h48v32h-48z" fill="#d7a455"/><path d="m24 56h96v208h-96z" fill="#5db9d2"/><g fill="#2aa2c3"><path d="m48 80h16v16h-16z"/><path d="m80 80h16v16h-16z"/><path d="m48 112h16v16h-16z"/><path d="m80 112h16v16h-16z"/><path d="m48 144h16v16h-16z"/><path d="m48 176h16v16h-16z"/><path d="m48 208h16v16h-16z"/></g><path d="m88 152h96v112h-96z" fill="#0093b9"/><path d="m112 176h16v16h-16z" fill="#5db9d2"/><path d="m144 176h16v16h-16z" fill="#5db9d2"/><path d="m112 208h16v16h-16z" fill="#5db9d2"/><path d="m144 208h16v16h-16z" fill="#5db9d2"/><path d="m392 488-48-168v-32l8-40h-64l8 40v32l-35.253 123.385a35 35 0 0 0 33.653 44.615z" fill="#a17834"/><path d="m296 288h48v32h-48z" fill="#d7a455" transform="matrix(-1 0 0 -1 640 608)"/><path d="m392 280h96v208h-96z" fill="#5db9d2" transform="matrix(-1 0 0 -1 880 768)"/><path d="m448 304h16v16h-16z" fill="#2aa2c3"/><path d="m416 304h16v16h-16z" fill="#2aa2c3"/><path d="m448 336h16v16h-16z" fill="#2aa2c3"/><path d="m416 336h16v16h-16z" fill="#2aa2c3"/><path d="m448 368h16v16h-16z" fill="#2aa2c3"/><path d="m448 400h16v16h-16z" fill="#2aa2c3"/><path d="m448 432h16v16h-16z" fill="#2aa2c3"/><path d="m328 376h96v112h-96z" fill="#0093b9" transform="matrix(-1 0 0 -1 752 864)"/><path d="m384 400h16v16h-16z" fill="#5db9d2"/><path d="m352 400h16v16h-16z" fill="#5db9d2"/><path d="m384 432h16v16h-16z" fill="#5db9d2"/><path d="m352 432h16v16h-16z" fill="#5db9d2"/></svg>