<svg id="Flat" height="512" viewBox="0 0 512 512" width="512" xmlns="http://www.w3.org/2000/svg"><path d="m300 288h188a0 0 0 0 1 0 0v80a0 0 0 0 1 0 0h-208a0 0 0 0 1 0 0v-60a20 20 0 0 1 20-20z" fill="#805a2f"/><path d="m120 264 48-168v-32l-8-40h64l-8 40v32l35.253 123.385a35 35 0 0 1 -33.653 44.615z" fill="#a17834"/><path d="m168 64h48v32h-48z" fill="#d7a455"/><path d="m24 56h96v208h-96z" fill="#5db9d2"/><g fill="#2aa2c3"><path d="m48 80h16v16h-16z"/><path d="m80 80h16v16h-16z"/><path d="m48 112h16v16h-16z"/><path d="m80 112h16v16h-16z"/><path d="m48 144h16v16h-16z"/><path d="m48 176h16v16h-16z"/><path d="m48 208h16v16h-16z"/></g><path d="m88 152h96v112h-96z" fill="#0093b9"/><path d="m112 176h16v16h-16z" fill="#5db9d2"/><path d="m144 176h16v16h-16z" fill="#5db9d2"/><path d="m112 208h16v16h-16z" fill="#5db9d2"/><path d="m144 208h16v16h-16z" fill="#5db9d2"/><path d="m280 468a20 20 0 0 0 20 20h188v-160h-188a20 20 0 0 1 -20-20z" fill="#a17834"/><path d="m256 408h-128v-56h32v-24l-56-32-56 32v24h32v72a32 32 0 0 0 32 32h144z" fill="#f6bc1b"/><path d="m256 104h128v96h-32v24l56 32 56-32v-24h-32v-112a32 32 0 0 0 -32-32h-144z" fill="#f6bc1b"/><path d="m416 384h72v48h-72z" fill="#d7a455"/></svg>