<svg id="Flat" height="512" viewBox="0 0 512 512" width="512" xmlns="http://www.w3.org/2000/svg"><path d="m88 272-40-248h372a20 20 0 0 1 20 20v84l-40 152h-312z" fill="#e3e4e2"/><path d="m440 104v-60a20 20 0 0 1 -20 20h-72a20 20 0 0 0 -20 20 20 20 0 0 0 20 20z" fill="#b2b1b4"/><path d="m328 280v-196a20 20 0 0 0 20 20h116l-41.9 176z" fill="#c9c9c7"/><path d="m424 288v40l-144 88v56l-48 16v-72l-144-88v-40z" fill="#0093b9"/><rect fill="#0093b9" height="32" rx="16" width="368" x="72" y="272"/><path d="m216 120a56 56 0 1 1 -56-56 56 56 0 0 1 56 56z" fill="#eb5849"/><path d="m160 120v56a56 56 0 0 1 -39.6-95.6z" fill="#0093b9"/><g fill="#c9c9c7"><path d="m128 200h16v16h-16z"/><path d="m160 200h136v16h-136z"/><path d="m112 232h168v16h-168z"/><path d="m248 80h48v16h-48z"/><path d="m248 112h48v16h-48z"/><path d="m248 144h48v16h-48z"/></g><path d="m88 304h336v16h-336z" fill="#0884a9"/><path d="m216 120a56 56 0 0 1 -56 56v-112a56 56 0 0 1 56 56z" fill="#f6bc1b"/><path d="m189.657 109.657-11.314-11.314 48-48a8 8 0 0 1 5.657-2.343h64v16h-60.686z" fill="#0093b9"/></svg>