<svg id="Flat" height="512" viewBox="0 0 512 512" width="512" xmlns="http://www.w3.org/2000/svg"><path d="m64 56h424a0 0 0 0 1 0 0v104a0 0 0 0 1 0 0h-464a0 0 0 0 1 0 0v-64a40 40 0 0 1 40-40z" fill="#805a2f"/><path d="m24 96a40 40 0 0 0 40 40h424v320h-424a40 40 0 0 1 -40-40z" fill="#a17834"/><g fill="#f6bc1b"><path d="m448 372.687-16 16v-102.063a24 24 0 1 0 -16 0v169.376h16v-44.686l29.657-29.657a8 8 0 0 0 2.343-5.657v-40h-16zm-24-116.687a8 8 0 1 1 -8 8 8.009 8.009 0 0 1 8-8z"/><path d="m448 304h16v16h-16z"/><path d="m464 224h-16v-28.687l-21.657-21.656a8 8 0 0 1 -2.343-5.657v-32h16v28.687l21.657 21.656a8 8 0 0 1 2.343 5.657z"/><path d="m96 136v44.686l-29.657 29.657a8 8 0 0 0 -2.343 5.657v57.376a24 24 0 1 0 16 0v-54.063l16-16v28.687h16v-96zm-24 168a8 8 0 1 1 8-8 8.009 8.009 0 0 1 -8 8z"/><path d="m96 248h16v16h-16z"/><path d="m64 404.687v-28.687h-16v32a8 8 0 0 0 2.343 5.657l21.657 21.656v20.687h16v-24a8 8 0 0 0 -2.343-5.657z"/><path d="m48 344h16v16h-16z"/></g><path d="m64 88h72v16h-72z" fill="#724e27"/><path d="m352 24h48a24 24 0 0 1 24 24v48a0 0 0 0 1 0 0h-72a0 0 0 0 1 0 0v-72a0 0 0 0 1 0 0z" fill="#7b9e3e"/><path d="m400 24a24 24 0 0 0 -24 24v336a24 24 0 0 1 -24 24h-216v-360a24 24 0 0 1 24-24z" fill="#88bf40"/><path d="m352 24a24 24 0 0 0 -24 24v296h-144v-296a24 24 0 0 1 24-24z" fill="#d2e288"/><circle cx="256" cy="224" fill="#88bf40" r="32"/><path d="m352 408h-232a24 24 0 0 1 -24-24v-40h232v40a24 24 0 0 0 24 24z" fill="#7b9e3e"/><path d="m376 88h80v16h-80z" fill="#724e27"/></svg>