<svg id="Flat" height="512" viewBox="0 0 512 512" width="512" xmlns="http://www.w3.org/2000/svg"><path d="m56 64h320v384h-320z" fill="#85bb40"/><path d="m136 432v-40l-43.029-43.029a16.972 16.972 0 0 1 -4.971-12 16.971 16.971 0 0 1 16.971-16.971 16.972 16.972 0 0 1 12 4.971l19.029 19.029v-112a16 16 0 0 1 16-16 16 16 0 0 1 16 16v64h34.745a45.255 45.255 0 0 1 45.255 45.255 45.255 45.255 0 0 1 -13.255 32l-18.745 18.745v40z" fill="#f6c8a7"/><path d="m120 416h112v72h-112z" fill="#0093b9"/><path d="m192 440h16v16h-16z" fill="#5db9d2"/><path d="m128 104h-8a32.036 32.036 0 0 1 -32-32v-16a32 32 0 0 1 64 0v8h-16v-8a16 16 0 0 0 -32 0v16a16.019 16.019 0 0 0 16 16h8z" fill="#0093b9"/><g fill="#c3da61"><path d="m88 120h16v16h-16z"/><path d="m120 120h88v16h-88z"/><path d="m88 152h120v16h-120z"/><path d="m88 184h40v16h-40z"/><path d="m88 216h24v16h-24z"/><path d="m88 248h24v16h-24z"/><path d="m280 320h16v16h-16z"/><path d="m312 320h32v16h-32z"/><path d="m272 352h72v16h-72z"/><path d="m256 384h88v16h-88z"/></g><path d="m24 112h16v240h-16z" fill="#c9c9c7"/><path d="m24 368h16v16h-16z" fill="#c9c9c7"/><path d="m192 248h48v16h-48z" fill="#c3da61"/><path d="m462.527 147.354 25.473-23-12.286-29.66-34.274 1.751-17.885-17.885 1.751-34.274-29.662-12.286-23 25.473h-25.29l-22.998-25.473-29.662 12.286 1.751 34.274-17.885 17.885-34.274-1.751-12.286 29.662 25.473 23v25.292l-25.473 23 12.286 29.662 34.274-1.751 17.885 17.885-1.751 34.274 29.662 12.282 23-25.473h25.292l23 25.473 29.662-12.286-1.751-34.274 17.885-17.885 34.274 1.751 12.282-29.662-25.473-23zm-102.527 36.646a24 24 0 1 1 24-24 24 24 0 0 1 -24 24z" fill="#f6bc1b"/><path d="m360 232a72 72 0 1 1 72-72 72.081 72.081 0 0 1 -72 72zm0-128a56 56 0 1 0 56 56 56.063 56.063 0 0 0 -56-56z" fill="#f79726"/></svg>