<svg id="Flat" height="512" viewBox="0 0 512 512" width="512" xmlns="http://www.w3.org/2000/svg"><path d="m224 296v-272h168l56 56v216z" fill="#0093b9"/><path d="m64 168v320h256v-264l-56-56z" fill="#85bb40"/><path d="m264 168v56h56z" fill="#7b9e3e"/><path d="m392 24v56h56z" fill="#006e87"/><g fill="#f6bc1b"><path d="m136 112h128v16h-128z"/><path d="m160 80h128v16h-128z"/><path d="m120 48h128v16h-128z"/><path d="m104 112h16v16h-16z"/><path d="m88 48h16v16h-16z"/><path d="m280 448h120v16h-120z"/><path d="m256 416h120v16h-120z"/><path d="m296 384h120v16h-120z"/><path d="m416 448h16v16h-16z"/><path d="m432 384h16v16h-16z"/></g><path d="m352 184h64v16h-64z" fill="#5db9d2"/><path d="m352 216h64v16h-64z" fill="#5db9d2"/><path d="m352 248h64v16h-64z" fill="#5db9d2"/><path d="m176 360h56v16h-56z" fill="#c3da61"/><path d="m144 360h16v16h-16z" fill="#c3da61"/><path d="m128 392h104v16h-104z" fill="#c3da61"/><path d="m128 424h88v16h-88z" fill="#c3da61"/><path d="m240 288h16v16h-16z" fill="#c3da61"/><path d="m272 288h16v16h-16z" fill="#c3da61"/><path d="m240 256h16v16h-16z" fill="#c3da61"/><path d="m272 256h16v16h-16z" fill="#c3da61"/><path d="m104 264a56 56 0 1 0 56-56 56 56 0 0 0 -56 56z" fill="#eb5849"/><path d="m160 264v56a56 56 0 0 0 39.6-95.6z" fill="#0093b9"/><path d="m104 264a56 56 0 0 0 56 56v-112a56 56 0 0 0 -56 56z" fill="#f6bc1b"/><path d="m112 456h-16v-144a8 8 0 0 1 2.343-5.657l32-32 11.314 11.314-29.657 29.657z" fill="#0093b9"/><path d="m400 144v-24h-16v24h-16v-56h-16v56h-16v-32h-16v32h-16v16h112v-16z" fill="#f6bc1b"/></svg>