<svg id="Flat" height="512" viewBox="0 0 512 512" width="512" xmlns="http://www.w3.org/2000/svg"><rect fill="#e3e4e2" height="432" rx="24" width="400" x="40" y="40"/><path d="m456 416h-312l-16-16 16-16h312a16 16 0 0 1 16 16 16 16 0 0 1 -16 16z" fill="#0093b9"/><path d="m392 384h32v32h-32z" fill="#107c98"/><path d="m72 344h272v16h-272z" fill="#b2b1b4"/><path d="m110.09 332.967a25.436 25.436 0 0 1 -6.156-.757l-17.866-4.447 3.864-15.526 17.867 4.447a9.34 9.34 0 0 0 10.8-5.278l12.479-28.075a19.536 19.536 0 0 1 36.8 3.2l2.856 11.423a3.715 3.715 0 0 0 6.232 1.726l5.622-5.623a19.971 19.971 0 0 1 31.986 5.191l2.913 5.824a1.067 1.067 0 0 0 .823.606 1.082 1.082 0 0 0 .973-.314 29.092 29.092 0 0 1 20.717-8.582 29.093 29.093 0 0 1 20.709 8.579 22.393 22.393 0 0 0 15.938 6.6h19.353v16h-19.351a38.288 38.288 0 0 1 -27.252-11.29 13.2 13.2 0 0 0 -9.4-3.892 13.2 13.2 0 0 0 -9.4 3.891 17.121 17.121 0 0 1 -27.42-4.449l-2.912-5.825a3.972 3.972 0 0 0 -6.362-1.032l-5.622 5.623a19.717 19.717 0 0 1 -33.069-9.159l-2.856-11.423a3.535 3.535 0 0 0 -6.66-.579l-12.47 28.074a25.315 25.315 0 0 1 -23.136 15.067z" fill="#eb5849"/><path d="m312 311.964h16v16h-16z" fill="#eb5849"/><path d="m416 40h-352a24 24 0 0 0 -24 24v40h400v-40a24 24 0 0 0 -24-24z" fill="#0093b9"/><g fill="#b2b1b4"><path d="m296 216h16v16h-16z"/><path d="m280 248h128v16h-128z"/><path d="m360 280h48v16h-48z"/></g><path d="m72 136h336v64h-336z" fill="#0093b9"/><path d="m328 216h80v16h-80z" fill="#b2b1b4"/><path d="m64 64h16v16h-16z" fill="#eb5849"/><path d="m96 64h16v16h-16z" fill="#f6bc1b"/><path d="m128 64h16v16h-16z" fill="#85bb40"/><path d="m424 384h32a16 16 0 0 1 16 16 16 16 0 0 1 -16 16h-32a0 0 0 0 1 0 0v-32a0 0 0 0 1 0 0z" fill="#b2b1b4"/></svg>