<svg id="Flat" height="512" viewBox="0 0 512 512" width="512" xmlns="http://www.w3.org/2000/svg"><path d="m482.274 154.177-186.676 186.676h-33.941v33.941l-107.48 107.48-124.451-124.451 107.48-107.48h33.941v-33.941l186.676-186.676z" fill="#f6bc1b"/><path d="m193.775 363.48-33.942 33.941h-11.313l-33.941-33.941v-11.313l33.941-33.942h11.313l33.942 33.942z" fill="#85bb40"/><path d="m146.176 349.824h16v16h-16z" fill="#0093b9" transform="matrix(.707 -.707 .707 .707 -207.862 213.823)"/><g fill="#e3e4e2"><path d="m122.378 392.25h24v16h-24z" transform="matrix(.707 -.707 .707 .707 -243.661 212.25)"/><path d="m99.75 369.622h24v16h-24z" transform="matrix(.707 -.707 .707 .707 -234.288 189.622)"/><path d="m184.603 330.025h24v16h-24z" transform="matrix(.707 -.707 .707 .707 -181.436 238.024)"/><path d="m161.975 307.397h24v16h-24z" transform="matrix(.707 -.707 .707 .707 -172.063 215.397)"/><path d="m103.75 326.024h16v24h-16z" transform="matrix(.707 -.707 .707 .707 -206.286 178.02)"/><path d="m126.378 303.397h16v24h-16z" transform="matrix(.707 -.707 .707 .707 -183.659 187.392)"/><path d="m165.976 388.25h16v24h-16z" transform="matrix(.707 -.707 .707 .707 -232.065 240.256)"/><path d="m188.603 365.622h16v24h-16z" transform="matrix(.707 -.707 .707 .707 -209.437 249.628)"/></g><path d="m185.775 264.97h16v16h-16z" fill="#f79726" transform="matrix(.707 -.707 .707 .707 -136.264 216.971)"/><path d="m208.402 287.598h16v16h-16z" fill="#f79726" transform="matrix(.707 -.707 .707 .707 -145.637 239.598)"/><path d="m231.03 310.225h16v16h-16z" fill="#f79726" transform="matrix(.707 -.707 .707 .707 -155.009 262.225)"/><path d="m202.912 158.461h208v48h-208z" fill="#0093b9" transform="matrix(.707 -.707 .707 .707 -39.127 270.461)"/><path d="m264.97 287.598h16v16h-16z" fill="#f79726" transform="matrix(.707 -.707 .707 .707 -129.068 279.598)"/><path d="m261.823 202.745h192v16h-192z" fill="#f79726" transform="matrix(.707 -.707 .707 .707 -44.215 314.745)"/><path d="m134.059 112.236h176v16h-176z" fill="#b2b1b4" transform="matrix(.707 -.707 .707 .707 -19.98 192.236)"/><path d="m177.172 420.534h152v16h-152z" fill="#b2b1b4" transform="matrix(.707 -.707 .707 .707 -228.867 304.534)"/><path d="m293.255 33.04h16v16h-16z" fill="#b2b1b4" transform="matrix(.707 -.707 .707 .707 59.216 225.04)"/></svg>