<svg id="Flat" height="512" viewBox="0 0 512 512" width="512" xmlns="http://www.w3.org/2000/svg"><rect fill="#85bb40" height="368" rx="24" width="336" x="152" y="24"/><path d="m464 24h-288a24 24 0 0 0 -24 24v40h336v-40a24 24 0 0 0 -24-24z" fill="#0093b9"/><path d="m176 48h16v16h-16z" fill="#eb5849"/><path d="m208 48h16v16h-16z" fill="#f6bc1b"/><path d="m240 48h16v16h-16z" fill="#85bb40"/><rect fill="#0093b9" height="336" rx="32" width="192" x="96" y="152"/><rect fill="#2da4c4" height="304" rx="16" width="160" x="112" y="168"/><path d="m184 448h16v16h-16z" fill="#8acadb"/><path d="m200 176h16v16h-16z" fill="#8acadb"/><path d="m168 176h16v16h-16z" fill="#8acadb"/><path d="m216 304v-1.167a22.875 22.875 0 0 0 -16-21.788v-9.045h-16v9.045a22.834 22.834 0 0 0 -3.379 42.21l15.6 7.8a6.833 6.833 0 0 1 -3.054 12.945h-2.334a6.84 6.84 0 0 1 -6.833-6.833v-1.167h-16v1.167a22.875 22.875 0 0 0 16 21.788v9.045h16v-9.045a22.834 22.834 0 0 0 3.379-42.21l-15.6-7.8a6.833 6.833 0 0 1 3.054-12.945h2.334a6.84 6.84 0 0 1 6.833 6.833v1.167z" fill="#8acadb"/><g fill="#d1dd86"><path d="m376 214.955v9.045h16v-9.045a22.834 22.834 0 0 0 3.379-42.21l-15.6-7.8a6.833 6.833 0 0 1 3.054-12.945h2.334a6.84 6.84 0 0 1 6.833 6.833v1.167h16v-1.167a22.875 22.875 0 0 0 -16-21.788v-9.045h-16v9.045a22.834 22.834 0 0 0 -3.379 42.21l15.6 7.8a6.833 6.833 0 0 1 -3.054 12.945h-2.334a6.84 6.84 0 0 1 -6.833-6.833v-1.167h-16v1.167a22.875 22.875 0 0 0 16 21.788z"/><path d="m360 248h96v16h-96z"/><path d="m328 248h16v16h-16z"/><path d="m312 280h144v16h-144z"/><path d="m312 312h144v16h-144z"/><path d="m312 344h112v16h-112z"/></g><path d="m24 408 16-16v-72a24 24 0 0 1 24-24h32v32l20-20a16.971 16.971 0 0 1 24 0 16.971 16.971 0 0 1 0 24l-36 36a45.255 45.255 0 0 1 0 64l-40 40z" fill="#f6c8a7"/><rect fill="#e99180" height="16" rx="8" transform="matrix(.707 -.707 .707 .707 -211.821 160.65)" width="22.627" x="76.686" y="328"/></svg>