<svg id="Flat" height="512" viewBox="0 0 512 512" width="512" xmlns="http://www.w3.org/2000/svg"><g fill="#f8bc1e"><path d="m104 344h40v16h-40z"/><path d="m80 312h64v16h-64z"/><path d="m144 296h-48a8 8 0 0 1 -5.657-2.343l-56-56a8 8 0 0 1 -2.343-5.657v-88h16v84.687l51.313 51.313h44.687z"/><path d="m144 264h-40a8 8 0 0 1 -5.657-2.343l-32-32a8 8 0 0 1 -2.343-5.657v-136h16v132.686l27.313 27.314h36.687z"/><path d="m104 216h40v16h-40z"/><path d="m96 184h48v16h-48z"/><path d="m104 152h40v16h-40z"/></g><path d="m64 56h16v16h-16z" fill="#e8732d"/><path d="m32 112h16v16h-16z" fill="#e8732d"/><path d="m48 312h16v16h-16z" fill="#e8732d"/><path d="m152 104h16v40h-16z" fill="#f8bc1e"/><path d="m184 80h16v64h-16z" fill="#f8bc1e"/><path d="m216 144v-48a8 8 0 0 1 2.343-5.657l56-56a8 8 0 0 1 5.657-2.343h88v16h-84.687l-51.313 51.313v44.687z" fill="#f8bc1e"/><path d="m248 144v-40a8 8 0 0 1 2.343-5.657l32-32a8 8 0 0 1 5.657-2.343h136v16h-132.686l-27.314 27.313v36.687z" fill="#f8bc1e"/><path d="m280 104h16v40h-16z" fill="#f8bc1e"/><path d="m312 96h16v48h-16z" fill="#f8bc1e"/><path d="m344 104h16v40h-16z" fill="#f8bc1e"/><path d="m440 64h16v16h-16z" fill="#e8732d"/><path d="m384 32h16v16h-16z" fill="#e8732d"/><path d="m184 48h16v16h-16z" fill="#e8732d"/><path d="m344 368h16v40h-16z" fill="#f8bc1e"/><path d="m312 368h16v64h-16z" fill="#f8bc1e"/><path d="m296 368v48a8 8 0 0 1 -2.343 5.657l-56 56a8 8 0 0 1 -5.657 2.343h-88v-16h84.687l51.313-51.313v-44.687z" fill="#f8bc1e"/><path d="m264 368v40a8 8 0 0 1 -2.343 5.657l-32 32a8 8 0 0 1 -5.657 2.343h-136v-16h132.686l27.314-27.313v-36.687z" fill="#f8bc1e"/><path d="m216 368h16v40h-16z" fill="#f8bc1e"/><path d="m184 368h16v48h-16z" fill="#f8bc1e"/><path d="m152 368h16v40h-16z" fill="#f8bc1e"/><path d="m56 432h16v16h-16z" fill="#e8732d"/><path d="m112 464h16v16h-16z" fill="#e8732d"/><path d="m312 448h16v16h-16z" fill="#e8732d"/><path d="m368 152h40v16h-40z" fill="#f8bc1e"/><path d="m368 184h64v16h-64z" fill="#f8bc1e"/><path d="m368 216h48a8 8 0 0 1 5.657 2.343l56 56a8 8 0 0 1 2.343 5.657v88h-16v-84.687l-51.313-51.313h-44.687z" fill="#f8bc1e"/><path d="m368 248h40a8 8 0 0 1 5.657 2.343l32 32a8 8 0 0 1 2.343 5.657v136h-16v-132.686l-27.313-27.314h-36.687z" fill="#f8bc1e"/><path d="m368 280h40v16h-40z" fill="#f8bc1e"/><path d="m368 312h48v16h-48z" fill="#f8bc1e"/><path d="m368 344h40v16h-40z" fill="#f8bc1e"/><path d="m432 440h16v16h-16z" fill="#e8732d"/><path d="m464 384h16v16h-16z" fill="#e8732d"/><path d="m448 184h16v16h-16z" fill="#e8732d"/><path d="m368 384h-224l-16-16v-224l16-16h224l16 16v224z" fill="#0093b9"/><path d="m160 160h192v192h-192z" fill="#85bb40"/><path d="m264 217.045v-9.045h-16v9.045a22.834 22.834 0 0 0 -3.379 42.21l15.6 7.8a6.833 6.833 0 0 1 -3.054 12.945h-2.334a6.84 6.84 0 0 1 -6.833-6.833v-1.167h-16v1.167a22.875 22.875 0 0 0 16 21.788v9.045h16v-9.045a22.834 22.834 0 0 0 3.379-42.21l-15.6-7.8a6.833 6.833 0 0 1 3.054-12.945h2.334a6.84 6.84 0 0 1 6.833 6.833v1.167h16v-1.167a22.875 22.875 0 0 0 -16-21.788z" fill="#e3e4e2"/><path d="m184 184h16v16h-16z" fill="#e3e4e2"/><path d="m312 184h16v16h-16z" fill="#e3e4e2"/><path d="m184 312h16v16h-16z" fill="#e3e4e2"/><path d="m312 312h16v16h-16z" fill="#e3e4e2"/></svg>