<svg id="Flat" height="512" viewBox="0 0 512 512" width="512" xmlns="http://www.w3.org/2000/svg"><path d="m448 96a71.988 71.988 0 1 1 -72-72 72.006 72.006 0 0 1 72 72z" fill="#f6bc1b"/><path d="m400 80v-1.167a22.873 22.873 0 0 0 -16-21.788v-9.045h-16v9.045a22.834 22.834 0 0 0 -3.378 42.21l15.6 7.8a6.833 6.833 0 0 1 -3.055 12.945h-2.334a6.84 6.84 0 0 1 -6.833-6.833v-1.167h-16v1.167a22.873 22.873 0 0 0 16 21.788v9.045h16v-9.045a22.834 22.834 0 0 0 3.378-42.21l-15.6-7.8a6.833 6.833 0 0 1 3.055-12.945h2.334a6.84 6.84 0 0 1 6.833 6.833v1.167z" fill="#f79726"/><path d="m456 200v112a16 16 0 0 1 -16 16h-16l-8 168h-80l-7.3-153.21-.7-14.79h-16a16 16 0 0 1 -16-16v-112a32 32 0 0 1 32-32h96a32 32 0 0 1 32 32z" fill="#0093b9"/><g fill="#107c98"><path d="m368 352h16v144h-16z"/><path d="m424 326.312a7.712 7.712 0 0 1 -11.257 6.88 24.021 24.021 0 0 1 -12.743-21.192v-16a8 8 0 0 1 2.343-5.658l13.657-13.656v-52.686h16v56a8 8 0 0 1 -2.343 5.658l-13.657 13.656v12.686a8 8 0 0 0 3.965 6.906 7.832 7.832 0 0 1 4.035 6.7z"/><path d="m352 200v112a32.041 32.041 0 0 1 -23.3 30.79l-.7-14.79h-16a16 16 0 0 1 -16-16v-112a32 32 0 0 1 32-32h11.75a47.753 47.753 0 0 1 12.25 32z"/></g><path d="m344 96a87.533 87.533 0 0 1 -17.33 52.43 71.964 71.964 0 0 1 0-104.86 87.533 87.533 0 0 1 17.33 52.43z" fill="#f79726"/><path d="m64 96a71.988 71.988 0 1 0 72-72 72.006 72.006 0 0 0 -72 72z" fill="#f6bc1b"/><path d="m160 80v-1.167a22.873 22.873 0 0 0 -16-21.788v-9.045h-16v9.045a22.834 22.834 0 0 0 -3.378 42.21l15.6 7.8a6.833 6.833 0 0 1 -3.055 12.945h-2.334a6.84 6.84 0 0 1 -6.833-6.833v-1.167h-16v1.167a22.873 22.873 0 0 0 16 21.788v9.045h16v-9.045a22.834 22.834 0 0 0 3.378-42.21l-15.6-7.8a6.833 6.833 0 0 1 3.055-12.945h2.334a6.84 6.84 0 0 1 6.833 6.833v1.167z" fill="#f79726"/><path d="m56 200v112a16 16 0 0 0 16 16h16l8 168h80l7.3-153.21.7-14.79h16a16 16 0 0 0 16-16v-112a32 32 0 0 0 -32-32h-96a32 32 0 0 0 -32 32z" fill="#0093b9"/><path d="m128 352h16v144h-16z" fill="#107c98"/><path d="m88 326.312a7.712 7.712 0 0 0 11.257 6.88 24.021 24.021 0 0 0 12.743-21.192v-16a8 8 0 0 0 -2.343-5.658l-13.657-13.656v-52.686h-16v56a8 8 0 0 0 2.343 5.658l13.657 13.656v12.686a8 8 0 0 1 -3.965 6.906 7.832 7.832 0 0 0 -4.035 6.7z" fill="#107c98"/><path d="m160 200v112a32.041 32.041 0 0 0 23.3 30.79l.7-14.79h16a16 16 0 0 0 16-16v-112a32 32 0 0 0 -32-32h-11.75a47.753 47.753 0 0 0 -12.25 32z" fill="#107c98"/><path d="m168 96a87.533 87.533 0 0 0 17.33 52.43 71.964 71.964 0 0 0 0-104.86 87.533 87.533 0 0 0 -17.33 52.43z" fill="#f79726"/><circle cx="256" cy="96" fill="#f6bc1b" r="72"/><path d="m280 80v-1.167a22.873 22.873 0 0 0 -16-21.788v-9.045h-16v9.045a22.834 22.834 0 0 0 -3.378 42.21l15.6 7.8a6.833 6.833 0 0 1 -3.055 12.945h-2.334a6.84 6.84 0 0 1 -6.833-6.833v-1.167h-16v1.167a22.873 22.873 0 0 0 16 21.788v9.045h16v-9.045a22.834 22.834 0 0 0 3.378-42.21l-15.6-7.8a6.833 6.833 0 0 1 3.055-12.945h2.334a6.84 6.84 0 0 1 6.833 6.833v1.167z" fill="#f79726"/><path d="m296 496 8-168h16a16 16 0 0 0 16-16v-112a32 32 0 0 0 -32-32h-96a32 32 0 0 0 -32 32v112a16 16 0 0 0 16 16h16l8 168z" fill="#0093b9"/><path d="m248 352h16v144h-16z" fill="#107c98"/><path d="m208 326.312v-.7a7.832 7.832 0 0 1 4.035-6.7 8 8 0 0 0 3.965-6.912v-12.686l-13.657-13.658a8 8 0 0 1 -2.343-5.656v-56h16v52.686l13.657 13.657a8 8 0 0 1 2.343 5.657v16a24.021 24.021 0 0 1 -12.743 21.192 7.712 7.712 0 0 1 -11.257-6.88z" fill="#107c98"/><path d="m304 326.312a7.712 7.712 0 0 1 -11.257 6.88 24.021 24.021 0 0 1 -12.743-21.192v-16a8 8 0 0 1 2.343-5.658l13.657-13.656v-52.686h16v56a8 8 0 0 1 -2.343 5.658l-13.657 13.656v12.686a8 8 0 0 0 3.965 6.906 7.832 7.832 0 0 1 4.035 6.7z" fill="#107c98"/></svg>