<svg id="Flat" height="512" viewBox="0 0 512 512" width="512" xmlns="http://www.w3.org/2000/svg"><rect fill="#0093b9" height="320" rx="24" width="192" x="160" y="96"/><rect fill="#2da4c4" height="288" rx="8" width="160" x="176" y="112"/><g fill="#8acadb"><path d="m248 376h16v16h-16z"/><path d="m264 120h16v16h-16z"/><path d="m232 120h16v16h-16z"/></g><path d="m480 256c0-101.259-68.233-190.245-165.931-216.4l-4.138 15.456c90.714 24.285 154.069 106.915 154.069 200.944 0 107.84-82.5 196.766-187.693 207.007l9.35-9.35-11.314-11.314-24 24a8 8 0 0 0 0 11.314l24 24 11.314-11.314-11.11-11.11a224 224 0 0 0 205.453-223.233z" fill="#eb5849"/><path d="m297.472 35.833c-5.472-1.024-11.055-1.854-16.594-2.466l-1.756 15.9c5.142.568 10.326 1.338 15.406 2.29z" fill="#eb5849"/><path d="m214.528 476.167c5.472 1.024 11.055 1.854 16.594 2.466l1.756-15.9c-5.142-.568-10.326-1.338-15.406-2.29z" fill="#85bb40"/><path d="m261.657 34.343-24-24-11.314 11.314 11.11 11.11a224 224 0 0 0 -205.453 223.233c0 101.259 68.233 190.245 165.931 216.4l4.138-15.456c-90.714-24.285-154.069-106.915-154.069-200.944 0-107.84 82.5-196.766 187.693-207.007l-9.35 9.35 11.314 11.314 24-24a8 8 0 0 0 0-11.314z" fill="#85bb40"/><path d="m400 264h-48l-32 24v-24h-32a16 16 0 0 1 -16-16v-64a16 16 0 0 1 16-16h112a16 16 0 0 1 16 16v64a16 16 0 0 1 -16 16z" fill="#85bb40"/><path d="m296 192h16v16h-16z" fill="#c3da61"/><path d="m328 192h64v16h-64z" fill="#c3da61"/><path d="m296 224h96v16h-96z" fill="#c3da61"/><path d="m112 328h48l32 24v-24h32a16 16 0 0 0 16-16v-64a16 16 0 0 0 -16-16h-112a16 16 0 0 0 -16 16v64a16 16 0 0 0 16 16z" fill="#eb5849"/><path d="m120 256h16v16h-16z" fill="#f49196"/><path d="m152 256h64v16h-64z" fill="#f49196"/><path d="m120 288h96v16h-96z" fill="#f49196"/></svg>