<svg id="Flat" height="512" viewBox="0 0 512 512" width="512" xmlns="http://www.w3.org/2000/svg"><path d="m56 168h400v304h-400z" fill="#c9c9c7"/><path d="m88 200h336v224h-336z" fill="#0093b9"/><path d="m104 216h304v192h-304z" fill="#2da4c4"/><path d="m24 456h464a0 0 0 0 1 0 0 32 32 0 0 1 -32 32h-400a32 32 0 0 1 -32-32 0 0 0 0 1 0 0z" fill="#e3e4e2"/><path d="m200 216h-16v16l-32-16h-112a16 16 0 0 1 -16-16v-32a16 16 0 0 1 16-16h160a16 16 0 0 1 16 16v32a16 16 0 0 1 -16 16z" fill="#eb5849"/><path d="m48 176h16v16h-16z" fill="#f49196"/><path d="m80 176h112v16h-112z" fill="#f49196"/><path d="m40 120h16v16h-16z" fill="#c9c9c7"/><path d="m72 120h128v16h-128z" fill="#c9c9c7"/><path d="m112 384h288v16h-288z" fill="#8acadb"/><path d="m200 328h-16v16l-32-16h-112a16 16 0 0 1 -16-16v-32a16 16 0 0 1 16-16h160a16 16 0 0 1 16 16v32a16 16 0 0 1 -16 16z" fill="#85bb40"/><path d="m48 288h16v16h-16z" fill="#c3da61"/><path d="m80 288h112v16h-112z" fill="#c3da61"/><rect fill="#0093b9" height="224" rx="16" width="144" x="344" y="80"/><rect fill="#2da4c4" height="192" rx="8" width="112" x="360" y="96"/><path d="m408 264h16v16h-16z" fill="#8acadb"/><path d="m400 120h-16v24l-32-24h-80a16 16 0 0 1 -16-16v-64a16 16 0 0 1 16-16h128a16 16 0 0 1 16 16v64a16 16 0 0 1 -16 16z" fill="#85bb40"/><g fill="#c3da61"><path d="m280 48h16v16h-16z"/><path d="m312 48h80v16h-80z"/><path d="m280 80h112v16h-112z"/></g></svg>