<svg id="Flat" height="512" viewBox="0 0 512 512" width="512" xmlns="http://www.w3.org/2000/svg"><path d="m392 336h-272a135.346 135.346 0 0 1 26.78-81.05 136.844 136.844 0 0 1 44.22-38.45 136.137 136.137 0 0 1 152.78 15.61 136.872 136.872 0 0 1 31.83 39.09 135.488 135.488 0 0 1 16.39 64.8z" fill="#0093b9"/><path d="m184 312v24h-64a135.346 135.346 0 0 1 26.78-81.05l29.22 25.05z" fill="#85bb40"/><path d="m343.78 232.11-47.78 23.89-16 24h-24l-24-24-32-8-9-31.5a136.137 136.137 0 0 1 152.78 15.61z" fill="#85bb40"/><path d="m392 336h-72v-24l16-32 39.61-8.8a135.488 135.488 0 0 1 16.39 64.8z" fill="#85bb40"/><path d="m88 312h336v176h-336z" fill="#e8ae48"/><path d="m88 312h96v176h-96z" fill="#ce882a"/><path d="m184 312-32 48h-96l32-48z" fill="#b0792c"/><path d="m184 312 32 48h240l-32-48z" fill="#d7a148"/><path d="m48 480h416v16h-416z" fill="#c9c9c7"/><path d="m136 208h-24v24l-32-24h-40a16 16 0 0 1 -16-16v-64a16 16 0 0 1 16-16h96a16 16 0 0 1 16 16v64a16 16 0 0 1 -16 16z" fill="#85bb40"/><path d="m48 136h16v16h-16z" fill="#c3da61"/><path d="m80 136h48v16h-48z" fill="#c3da61"/><path d="m48 168h80v16h-80z" fill="#c3da61"/><path d="m304 144h-32l-16 24-16-24h-32a16 16 0 0 1 -16-16v-80a16 16 0 0 1 16-16h96a16 16 0 0 1 16 16v80a16 16 0 0 1 -16 16z" fill="#eb5849"/><path d="m232 64v48l56-24z" fill="#e3e4e2"/><path d="m488 200h-48l-32 24v-24h-48v-96h128z" fill="#e3e4e2"/><path d="m360 104 64 56 64-56z" fill="#c9c9c7"/><g fill="#f6bc1b"><path d="m88 264h16v16h-16z"/><path d="m16 304h16v16h-16z"/><path d="m40 48h16v16h-16z"/><path d="m120 72h16v16h-16z"/><path d="m352 64h16v16h-16z"/><path d="m448 32h16v16h-16z"/><path d="m408 256h16v16h-16z"/><path d="m472 296h16v16h-16z"/><path d="m144 16h16v16h-16z"/></g></svg>