<svg id="Flat" height="512" viewBox="0 0 512 512" width="512" xmlns="http://www.w3.org/2000/svg"><path d="m312 488h-112l4.36-48 3.24-35.58h96.8l3.24 35.58z" fill="#cacac9"/><path d="m307.64 440h-103.28l3.24-35.58h96.8z" fill="#b3b1b3"/><rect fill="#0093b9" height="368" rx="24" width="448" x="32" y="56"/><path d="m32 360h448a0 0 0 0 1 0 0v40a24 24 0 0 1 -24 24h-400a24 24 0 0 1 -24-24v-40a0 0 0 0 1 0 0z" fill="#cacac9"/><path d="m32 56h448a0 0 0 0 1 0 0v40a24 24 0 0 1 -24 24h-400a24 24 0 0 1 -24-24v-40a0 0 0 0 1 0 0z" fill="#cacac9" transform="matrix(-1 0 0 -1 512 176)"/><g fill="#969595"><path d="m248 384h16v16h-16z"/><path d="m56 80h16v16h-16z"/><path d="m88 80h16v16h-16z"/><path d="m120 80h16v16h-16z"/></g><path d="m168 480h176v16h-176z" fill="#cacac9"/><path d="m48 136h416v208h-416z" fill="#2da4c4"/><path d="m272 288h32v32h-32z" fill="#85bb40"/><path d="m272 224h32v32h-32z" fill="#85bb40"/><path d="m336 288h32v32h-32z" fill="#85bb40"/><path d="m400 288h32v32h-32z" fill="#85bb40"/><path d="m435.777 230.111-35.777 17.889-35.777-17.889a80 80 0 0 1 -44.223-71.554v-110.557l80-24 80 24v110.557a80 80 0 0 1 -44.223 71.554z" fill="#e3e4e2"/><path d="m378.535 201.49a48 48 0 0 1 -26.535-42.932v-86.749l48-14.4 48 14.4v86.749a48 48 0 0 1 -26.535 42.932l-21.465 10.733z" fill="#0093b9"/><path d="m232 240a80.031 80.031 0 0 1 -112.92 72.93h-.01a80.013 80.013 0 0 1 32.93-152.93q4.05 0 8 .39a80.027 80.027 0 0 1 72 79.61z" fill="#107c98"/><path d="m192 224-8 24-24 8-24-16h-16l-8 16-33.09 16.55a80.021 80.021 0 0 1 73.09-112.55q4.05 0 8 .39v31.61l24 16z" fill="#85bb40"/><path d="m205.67 299.33a80.072 80.072 0 0 1 -86.59 13.6l24.92-24.93 32-8 24 8z" fill="#85bb40"/><path d="m400 128h48v30.558a48 48 0 0 1 -26.535 42.932l-21.465 10.733z" fill="#5db9d2"/><path d="m400 57.409v70.591h-48v-56.191z" fill="#5db9d2"/></svg>