<svg id="Flat" height="512" viewBox="0 0 512 512" width="512" xmlns="http://www.w3.org/2000/svg"><path d="m24 56h416v416h-416z" fill="#f6bc1b"/><path d="m88 24h240v16h-240z" fill="#c9c9c7"/><path d="m344 24h16v16h-16z" fill="#c9c9c7"/><path d="m96 56h64v72h-64z" fill="#f9da62"/><path d="m232 72h-8a32 32 0 0 0 -32 32v55a64 64 0 0 1 -64 64h-56a32 32 0 0 0 -32 32v9h192z" fill="#f5a922"/><path d="m192 224h16v16h-16z" fill="#f79726"/><path d="m160 224h16v16h-16z" fill="#f79726"/><path d="m96 264h64v72h-64z" fill="#f9da62"/><path d="m232 280h-8a32 32 0 0 0 -32 32v55a64 64 0 0 1 -64 64h-56a32 32 0 0 0 -32 32v9h192z" fill="#f5a922"/><path d="m192 432h16v16h-16z" fill="#f79726"/><path d="m160 432h16v16h-16z" fill="#f79726"/><path d="m304 56h64v72h-64z" fill="#f9da62"/><path d="m440 72h-8a32 32 0 0 0 -32 32v55a64 64 0 0 1 -64 64h-56a32 32 0 0 0 -32 32v9h192z" fill="#f5a922"/><path d="m400 224h16v16h-16z" fill="#f79726"/><path d="m368 224h16v16h-16z" fill="#f79726"/><path d="m304 264h64v72h-64z" fill="#f9da62"/><path d="m440 280h-8a32 32 0 0 0 -32 32v55a64 64 0 0 1 -64 64h-56a32 32 0 0 0 -32 32v9h192z" fill="#f5a922"/><path d="m400 432h16v16h-16z" fill="#f79726"/><path d="m368 432h16v16h-16z" fill="#f79726"/><rect fill="#0093b9" height="320" rx="24" width="192" x="296" y="168"/><rect fill="#2da4c4" height="288" rx="8" width="160" x="312" y="184"/><g fill="#8acadb"><path d="m384 448h16v16h-16z"/><path d="m400 192h16v16h-16z"/><path d="m368 192h16v16h-16z"/></g><path d="m392 320a7.976 7.976 0 0 1 -5.657-2.343l-20.126-20.126 11.314-11.314 14.469 14.47 58.343-58.344 11.314 11.314-64 64a7.976 7.976 0 0 1 -5.657 2.343z" fill="#eb5849"/><path d="m392 352a56 56 0 1 1 28.006-104.5l-8.012 13.85a40.005 40.005 0 1 0 20.006 34.65h16a56.063 56.063 0 0 1 -56 56z" fill="#eb5849"/><path d="m328 376h16v16h-16z" fill="#8acadb"/><path d="m360 376h96v16h-96z" fill="#8acadb"/><path d="m328 408h128v16h-128z" fill="#8acadb"/></svg>