<svg id="Flat" height="512" viewBox="0 0 512 512" width="512" xmlns="http://www.w3.org/2000/svg"><path d="m376 48v408a32 32 0 0 1 -32 32h-176a32 32 0 0 1 -32-32v-408z" fill="#0093b9"/><path d="m376 48v119.33a47.877 47.877 0 0 1 -24-11.59 47.892 47.892 0 0 1 -64 0 47.892 47.892 0 0 1 -64 0 47.892 47.892 0 0 1 -64 0 47.877 47.877 0 0 1 -24 11.59v-119.33z" fill="#0884a9"/><path d="m360 64v392a16.021 16.021 0 0 1 -16 16h-176a16.021 16.021 0 0 1 -16-16v-392z" fill="#2da4c4"/><path d="m248 448h16v16h-16z" fill="#8acadb"/><path d="m360 64v97.56a48.411 48.411 0 0 1 -8-5.82 47.892 47.892 0 0 1 -64 0 47.892 47.892 0 0 1 -64 0 47.892 47.892 0 0 1 -64 0 48.411 48.411 0 0 1 -8 5.82v-97.56z" fill="#0093b9"/><path d="m416 96-32-72h-256l-32 72v24h320z" fill="#e3e4e2"/><path d="m288 96-8-72h-48l-8 72z" fill="#eb5849"/><path d="m288 96v24a32 32 0 0 1 -32 32 32 32 0 0 1 -32-32v-24z" fill="#d4342f"/><path d="m416 96v24a32 32 0 0 1 -32 32 32 32 0 0 1 -32-32v-24z" fill="#d4342f"/><path d="m160 96v24a32 32 0 0 1 -32 32 32 32 0 0 1 -32-32v-24z" fill="#d4342f"/><path d="m224 96v24a32 32 0 0 1 -32 32 32 32 0 0 1 -32-32v-24z" fill="#c9c9c7"/><path d="m352 96v24a32 32 0 0 1 -32 32 32 32 0 0 1 -32-32v-24z" fill="#c9c9c7"/><path d="m96 96 32-72h48l-16 72z" fill="#eb5849"/><path d="m416 96-32-72h-48l16 72z" fill="#eb5849"/><path d="m265.167 200h53.666v16h-53.666z" fill="#d4342f" transform="matrix(.447 -.894 .894 .447 -24.627 376.152)"/><path d="m212 181.167h16v53.666h-16z" fill="#d4342f" transform="matrix(.894 -.447 .447 .894 -69.794 120.346)"/><path d="m320 248-16 64h-96l-16-64z" fill="#e3e4e2"/><rect fill="#eb5849" height="32" rx="16" width="160" x="176" y="216"/><path d="m314 272h-28.938l3-24h-16.124l-3 24h-25.876l-3-24h-16.124l3 24h-28.938l4 16h26.938l3 24h16.124l-3-24h21.876l-3 24h16.124l3-24h26.938z" fill="#c9c9c7"/><g fill="#8acadb"><path d="m184 376h144v16h-144z"/><path d="m184 408h144v16h-144z"/><path d="m232 344h96v16h-96z"/><path d="m200 344h16v16h-16z"/></g></svg>