<svg id="Flat" height="512" viewBox="0 0 512 512" width="512" xmlns="http://www.w3.org/2000/svg"><rect fill="#0093b9" height="432" rx="32" width="240" x="168" y="24"/><rect fill="#2da4c4" height="400" rx="16" width="208" x="184" y="40"/><path d="m280 416h16v16h-16z" fill="#8acadb"/><path d="m296 48h16v16h-16z" fill="#8acadb"/><path d="m264 48h16v16h-16z" fill="#8acadb"/><path d="m64 392 40-40v-104a32 32 0 0 1 32-32h32v56l16-16a22.627 22.627 0 0 1 32 0 22.627 22.627 0 0 1 0 32l-40 40a45.255 45.255 0 0 1 0 64l-56 56z" fill="#f6c8a7"/><rect fill="#e99180" height="32.985" rx="8" transform="matrix(.243 -.97 .97 .243 -144.864 350.462)" width="15.999" x="144" y="251.508"/><g fill="#8acadb"><path d="m216 336h144v16h-144z"/><path d="m216 368h128v16h-128z"/><path d="m232 304h128v16h-128z"/><path d="m280 272h80v16h-80z"/><path d="m248 272h16v16h-16z"/></g><path d="m424 120h16v200h-16z" fill="#c9c9c7"/><path d="m424 336h16v16h-16z" fill="#c9c9c7"/><path d="m57.373 367.431h45.255v113.137h-45.255z" fill="#85bb40" transform="matrix(.707 -.707 .707 .707 -276.382 180.755)"/><path d="m328 232v-80l32 8 8-32-56-24-24 24-24-24-56 24 8 32 32-8v80z" fill="#85bb40"/><rect fill="#e99180" height="16" rx="8" transform="matrix(.707 -.707 .707 .707 -155.123 193.477)" width="33.941" x="139.029" y="276"/></svg>