<svg id="Flat" height="512" viewBox="0 0 512 512" width="512" xmlns="http://www.w3.org/2000/svg"><path d="m456 264a202.719 202.719 0 0 1 -1.33 23.24 200.117 200.117 0 1 1 -198.67-223.24c110.46 0 200 89.54 200 200z" fill="#0093b9"/><path d="m404.25 398.24a200.3 200.3 0 0 1 -184.49 62.48l12.24-36.72 64-40 16-24h40l24-16 24 16z" fill="#85bb40"/><path d="m456 264a202.719 202.719 0 0 1 -1.33 23.24l-30.67 8.76-32-8-16-48-32 24-48-8-8-24 24-24 16-32-24-32-24 8-24 40-48-16v-32l-40-16 10.79-48.55a199.406 199.406 0 0 1 77.21-15.45c110.46 0 200 89.54 200 200z" fill="#85bb40"/><path d="m184 240v32l-16 40-72.01 72.01a200.035 200.035 0 0 1 11.14-253.57l20.87 37.56v24l24 40z" fill="#85bb40"/><path d="m136 464v-40a16 16 0 0 1 16-16h112a16 16 0 0 1 16 16v40z" fill="#e8ae48"/><path d="m112 448h192v40h-192z" fill="#ce882a"/><path d="m188 316-128 128a16.971 16.971 0 0 1 -24 0 16.971 16.971 0 0 1 0-24l128-128z" fill="#e8ae48"/><path d="m166.059 223.431h67.882v113.137h-67.882z" fill="#e8ae48" transform="matrix(.707 -.707 .707 .707 -139.411 223.431)"/><path d="m151.858 297.029h28.284v33.941h-28.284z" fill="#ce882a" transform="matrix(.707 -.707 .707 .707 -173.411 209.348)"/><g fill="#f6bc1b"><path d="m336 208h16v16h-16z"/><path d="m416 240h16v16h-16z"/><path d="m232 104h16v16h-16z"/><path d="m344 384h16v16h-16z"/><path d="m88 200h16v16h-16z"/></g><path d="m481.347 346.759-15.018-5.518c1.859-5.062 3.556-10.259 5.039-15.443l15.383 4.4c-1.592 5.563-3.409 11.133-5.404 16.561z" fill="#c9c9c7"/><path d="m490.857 313.646-15.657-3.292a225.583 225.583 0 0 0 4.8-46.354 224 224 0 0 0 -224-224 227.1 227.1 0 0 0 -30.907 2.113l-2.186-15.849a243.1 243.1 0 0 1 33.093-2.264 240 240 0 0 1 240 240 241.607 241.607 0 0 1 -5.143 49.646z" fill="#c9c9c7"/><path d="m19.554 305.37a242.138 242.138 0 0 1 -3.554-41.37 238.941 238.941 0 0 1 66.208-165.519l11.584 11.038a223 223 0 0 0 -61.792 154.481 226.214 226.214 0 0 0 3.317 38.63z" fill="#c9c9c7"/><rect fill="#ce882a" height="33.941" rx="16.971" transform="matrix(.707 -.707 .707 .707 -159.294 271.431)" width="101.823" x="197.088" y="311.029"/><rect fill="#ce882a" height="33.941" rx="16.971" transform="matrix(.707 -.707 .707 .707 -119.529 175.431)" width="101.823" x="101.088" y="215.029"/></svg>