<svg id="Flat" height="512" viewBox="0 0 512 512" width="512" xmlns="http://www.w3.org/2000/svg"><path d="m88 272h336v200h-336z" fill="#e3e4e2"/><path d="m312 392s-16-40-56-40-56 40-56 40v64h112z" fill="#e8ae48"/><path d="m264 456h-16v-96a8 8 0 0 1 8-8 8 8 0 0 1 8 8z" fill="#d7a148"/><path d="m72 304h32v136h-32z" fill="#c9c9c7"/><path d="m56 288 8 32h48l8-32v-16h-64z" fill="#b2b1b4"/><path d="m120 456-8-32h-48l-8 32v16h64z" fill="#b2b1b4"/><path d="m168 304h32v136h-32z" fill="#c9c9c7"/><path d="m152 288 8 32h48l8-32v-16h-64z" fill="#b2b1b4"/><path d="m216 456-8-32h-48l-8 32v16h64z" fill="#b2b1b4"/><path d="m408 304h32v136h-32z" fill="#c9c9c7"/><path d="m456 288-8 32h-48l-8-32v-16h64z" fill="#b2b1b4"/><path d="m392 456 8-32h48l8 32v16h-64z" fill="#b2b1b4"/><path d="m312 304h32v136h-32z" fill="#c9c9c7"/><path d="m360 288-8 32h-48l-8-32v-16h64z" fill="#b2b1b4"/><path d="m296 456 8-32h48l8 32v16h-64z" fill="#b2b1b4"/><path d="m72 280v-232a24 24 0 0 1 24-24h320a24 24 0 0 1 24 24v232z" fill="#0093b9"/><path d="m416 24h-320a24 24 0 0 0 -24 24v40h368v-40a24 24 0 0 0 -24-24z" fill="#cacac9"/><path d="m96 48h16v16h-16z" fill="#969595"/><path d="m128 48h16v16h-16z" fill="#969595"/><path d="m160 48h16v16h-16z" fill="#969595"/><path d="m448 256-192-64-192 64v16h384z" fill="#e3e4e2"/><g fill="#5db9d2"><path d="m136 121.045v-9.045h-16v9.045a22.834 22.834 0 0 0 -3.379 42.21l15.6 7.8a6.833 6.833 0 0 1 -3.054 12.945h-2.334a6.84 6.84 0 0 1 -6.833-6.833v-1.167h-16v1.167a22.876 22.876 0 0 0 16 21.788v9.045h16v-9.045a22.834 22.834 0 0 0 3.379-42.21l-15.6-7.8a6.833 6.833 0 0 1 3.054-12.945h2.334a6.84 6.84 0 0 1 6.833 6.833v1.167h16v-1.167a22.876 22.876 0 0 0 -16-21.788z"/><path d="m184 120h16v16h-16z"/><path d="m216 120h192v16h-192z"/><path d="m168 152h224v16h-224z"/></g><path d="m248 216h16v16h-16z" fill="#e8ae48"/><path d="m40 456h432v32h-432z" fill="#c9c9c7"/><path d="m40 256h432v32h-432z" fill="#c9c9c7"/><path d="m248 312h16v16h-16z" fill="#e8ae48"/><path d="m128 336h16v16h-16z" fill="#e8ae48"/><path d="m368 336h16v16h-16z" fill="#e8ae48"/></svg>