<svg id="Flat" height="512" viewBox="0 0 512 512" width="512" xmlns="http://www.w3.org/2000/svg"><path d="m464 376v-328a24 24 0 0 0 -24-24h-368a24 24 0 0 0 -24 24v384a24 24 0 0 0 24 24h328z" fill="#e3e4e2"/><path d="m440 24h-368a24 24 0 0 0 -24 24v40h416v-40a24 24 0 0 0 -24-24z" fill="#0093b9"/><path d="m72 48h16v16h-16z" fill="#eb5849"/><path d="m104 48h16v16h-16z" fill="#f6bc1b"/><path d="m136 48h16v16h-16z" fill="#85bb40"/><g fill="#c9c9c7"><path d="m80 360h136v16h-136z"/><path d="m80 392h136v16h-136z"/><path d="m80 328h136v16h-136z"/><path d="m128 296h88v16h-88z"/><path d="m96 296h16v16h-16z"/></g><path d="m296 256v-80l32 8 8-32-56-24-24 24-24-24-56 24 8 32 32-8v80z" fill="#0093b9"/><path d="m106.343 253.657-24-24a8 8 0 0 1 0-11.314l24-24 11.314 11.314-18.344 18.343 18.344 18.343z" fill="#949493"/><path d="m365.657 253.657-11.314-11.314 18.344-18.343-18.344-18.343 11.314-11.314 24 24a8 8 0 0 1 0 11.314z" fill="#949493"/><path d="m405.657 253.657-11.314-11.314 18.344-18.343-18.344-18.343 11.314-11.314 24 24a8 8 0 0 1 0 11.314z" fill="#949493"/><path d="m146.343 253.657-24-24a8 8 0 0 1 0-11.314l24-24 11.314 11.314-18.344 18.343 18.344 18.343z" fill="#949493"/><path d="m376 456v-40l-36-36a16.972 16.972 0 0 1 0-24 16.971 16.971 0 0 1 24 0l12 12v-80a16 16 0 0 1 16-16 16 16 0 0 1 16 16v40h40.4a39.6 39.6 0 0 1 39.6 39.6 39.6 39.6 0 0 1 -11.6 28l-20.4 20.4v40z" fill="#f6c8a7"/><path d="m360 440h112v72h-112z" fill="#0093b9"/><path d="m432 464h16v16h-16z" fill="#5db9d2"/><path d="m424 112h16v16h-16z" fill="#c9c9c7"/><path d="m392 112h16v16h-16z" fill="#c9c9c7"/><path d="m80 472h184v16h-184z" fill="#c9c9c7"/><path d="m280 472h16v16h-16z" fill="#c9c9c7"/><path d="m240 304h64v96h-64z" fill="#0093b9"/></svg>