<svg id="Flat" height="512" viewBox="0 0 512 512" width="512" xmlns="http://www.w3.org/2000/svg"><path d="m464 96v312a24.006 24.006 0 0 1 -24 24h-368a24.006 24.006 0 0 1 -24-24v-312z" fill="#0093b9"/><path d="m464 96v93.26a47.952 47.952 0 0 1 -48-9.52 47.892 47.892 0 0 1 -64 0 47.892 47.892 0 0 1 -64 0 47.892 47.892 0 0 1 -64 0 47.892 47.892 0 0 1 -64 0 47.892 47.892 0 0 1 -64 0 47.952 47.952 0 0 1 -48 9.52v-93.26z" fill="#0884a9"/><path d="m312 488h-112l4.16-40 3.84-37h96l3.84 37z" fill="#cacac9"/><path d="m168 480h176v16h-176z" fill="#cacac9"/><path d="m307.84 448h-103.68l3.84-37h96z" fill="#b3b1b3"/><path d="m440 432h-368a24 24 0 0 1 -24-24v-40h416v40a24 24 0 0 1 -24 24z" fill="#cacac9"/><path d="m248 392h16v16h-16z" fill="#969595"/><path d="m64 112h384v240h-384z" fill="#2da4c4"/><path d="m448 112v80a47.8 47.8 0 0 1 -32-12.26 47.892 47.892 0 0 1 -64 0 47.892 47.892 0 0 1 -64 0 47.892 47.892 0 0 1 -64 0 47.892 47.892 0 0 1 -64 0 47.892 47.892 0 0 1 -64 0 47.8 47.8 0 0 1 -32 12.26v-80z" fill="#0093b9"/><g fill="#8acadb"><path d="m288 240h144v16h-144z"/><path d="m288 272h144v16h-144z"/><path d="m336 208h96v16h-96z"/><path d="m304 208h16v16h-16z"/><path d="m416 320h16v16h-16z"/><path d="m384 320h16v16h-16z"/></g><path d="m177.167 216h53.666v16h-53.666z" fill="#d4342f" transform="matrix(.447 -.894 .894 .447 -87.583 306.287)"/><path d="m124 197.167h16v53.666h-16z" fill="#d4342f" transform="matrix(.894 -.447 .447 .894 -86.24 82.681)"/><path d="m232 264-16 64h-96l-16-64z" fill="#e3e4e2"/><rect fill="#eb5849" height="32" rx="16" width="160" x="88" y="232"/><path d="m226 288h-28.938l3-24h-16.124l-3 24h-25.876l-3-24h-16.124l3 24h-28.938l4 16h26.938l3 24h16.124l-3-24h21.876l-3 24h16.124l3-24h26.938z" fill="#c9c9c7"/><path d="m112 24h256v16h-256z" fill="#c9c9c7"/><path d="m384 24h16v16h-16z" fill="#c9c9c7"/><path d="m32 120 32-64h384l32 64v16h-448z" fill="#eb5849"/><path d="m160 120 16-64h-56l-24 64z" fill="#e3e4e2"/><path d="m288 120-8-64h-48l-8 64z" fill="#e3e4e2"/><path d="m352 120-16-64h56l24 64z" fill="#e3e4e2"/><path d="m288 120v24a32 32 0 0 1 -32 32 32 32 0 0 1 -32-32v-24z" fill="#c9c9c7"/><path d="m352 120v24a32 32 0 0 1 -32 32 32 32 0 0 1 -32-32v-24z" fill="#d4342f"/><path d="m416 120v24a32 32 0 0 1 -32 32 32 32 0 0 1 -32-32v-24z" fill="#c9c9c7"/><path d="m480 120v24a32 32 0 0 1 -32 32 32 32 0 0 1 -32-32v-24z" fill="#d4342f"/><path d="m96 120v24a32 32 0 0 1 -32 32 32 32 0 0 1 -32-32v-24z" fill="#d4342f"/><path d="m160 120v24a32 32 0 0 1 -32 32 32 32 0 0 1 -32-32v-24z" fill="#c9c9c7"/><path d="m224 120v24a32 32 0 0 1 -32 32 32 32 0 0 1 -32-32v-24z" fill="#d4342f"/></svg>