<svg id="Flat" height="512" viewBox="0 0 512 512" width="512" xmlns="http://www.w3.org/2000/svg"><rect fill="#0093b9" height="432" rx="32" width="240" x="40" y="24"/><rect fill="#2da4c4" height="400" rx="16" width="208" x="56" y="40"/><path d="m168 48h16v16h-16z" fill="#8acadb"/><path d="m136 48h16v16h-16z" fill="#8acadb"/><path d="m200 216v-64l32 8 8-32-56-24-24 24-24-24-56 24 8 32 32-8v64z" fill="#85bb40"/><path d="m72 320h48v16h-48z" fill="#8acadb"/><path d="m72 352h48v16h-48z" fill="#8acadb"/><path d="m72 384h48v16h-48z" fill="#8acadb"/><path d="m72 288h48v16h-48z" fill="#8acadb"/><path d="m120 256h112v16h-112z" fill="#8acadb"/><path d="m88 256h16v16h-16z" fill="#8acadb"/><rect fill="#e3e4e2" height="192" rx="24" width="256" x="144" y="296"/><path d="m472 432-16-16v-72a24 24 0 0 0 -24-24h-32v32l-12-12a16.971 16.971 0 0 0 -24 0 16.971 16.971 0 0 0 0 24l28 28a45.255 45.255 0 0 0 0 64l40 40z" fill="#f6c8a7"/><rect fill="#e99180" height="22.627" rx="8" transform="matrix(.707 -.707 .707 .707 -135.058 393.941)" width="16" x="400" y="348.686"/><rect fill="#f6bc1b" height="48" rx="8" width="48" x="168" y="320"/><g fill="#b2b1b4"><path d="m168 384h32v16h-32z"/><path d="m216 384h16v16h-16z"/><path d="m248 384h16v16h-16z"/><path d="m280 384h16v16h-16z"/><path d="m312 384h32v16h-32z"/><path d="m168 416h56v16h-56z"/><path d="m168 448h136v16h-136z"/></g><path d="m360 280h-40a24.027 24.027 0 0 1 -24-24v-80h16v80a8.009 8.009 0 0 0 8 8h40z" fill="#c9c9c7"/><path d="m296 144h16v16h-16z" fill="#c9c9c7"/></svg>