<svg id="Flat" height="512" viewBox="0 0 512 512" width="512" xmlns="http://www.w3.org/2000/svg"><rect fill="#e3e4e2" height="352" rx="24" width="368" x="32" y="24"/><path d="m376 24h-320a24 24 0 0 0 -24 24v40h368v-40a24 24 0 0 0 -24-24z" fill="#0093b9"/><path d="m56 48h16v16h-16z" fill="#eb5849"/><path d="m88 48h16v16h-16z" fill="#f6bc1b"/><path d="m120 48h16v16h-16z" fill="#85bb40"/><g fill="#b2b1b4"><path d="m96 257.045v-9.045h-16v9.045a22.834 22.834 0 0 0 -3.378 42.21l15.6 7.8a6.833 6.833 0 0 1 -3.055 12.945h-2.334a6.84 6.84 0 0 1 -6.833-6.833v-1.167h-16v1.167a22.874 22.874 0 0 0 16 21.788v9.045h16v-9.045a22.834 22.834 0 0 0 3.378-42.21l-15.6-7.8a6.833 6.833 0 0 1 3.055-12.945h2.334a6.84 6.84 0 0 1 6.833 6.833v1.167h16v-1.167a22.874 22.874 0 0 0 -16-21.788z"/><path d="m128 256h16v16h-16z"/><path d="m160 256h120v16h-120z"/><path d="m128 288h120v16h-120z"/><path d="m128 320h96v16h-96z"/></g><path d="m200 208h112v24h24l24-40-24-40h-24v24h-72a8 8 0 0 0 -8 8 8 8 0 0 1 -8 8h-24a8 8 0 0 0 -8 8 8 8 0 0 0 8 8z" fill="#f6bc1b"/><rect fill="#f6bc1b" height="16" rx="8" width="16" x="160" y="192"/><path d="m208 176h-88v24h-24l-24-40 24-40h24v24h112a8 8 0 0 1 8 8 8 8 0 0 1 -8 8h-8a8 8 0 0 0 -8 8 8 8 0 0 1 -8 8z" fill="#eb5849"/><rect fill="#eb5849" height="16" rx="8" width="16" x="256" y="144"/><path d="m64 392h128v16h-128z" fill="#c9c9c7"/><path d="m208 392h16v16h-16z" fill="#c9c9c7"/><path d="m457.711 364.934 22.289-20.122c-5.368-12.961-5.382-12.994-10.751-25.955l-29.989 1.532-15.649-15.649 1.531-29.99-25.954-10.75-20.123 22.289h-22.131l-20.122-22.289-25.955 10.75 1.532 29.99-15.649 15.649-29.99-1.532-10.75 25.955 22.289 20.122v22.131l-22.289 20.123 10.75 25.954 29.99-1.531 15.649 15.649-1.532 29.99 25.955 10.75 20.122-22.289h22.131l20.123 22.289 25.954-10.75-1.531-29.99 15.649-15.649 29.989 1.531c5.369-12.96 5.383-12.993 10.751-25.954l-22.289-20.123zm-89.711 59.066a48 48 0 1 1 48-48 48 48 0 0 1 -48 48z" fill="#0093b9"/></svg>