<svg id="Flat" height="512" viewBox="0 0 512 512" width="512" xmlns="http://www.w3.org/2000/svg"><rect fill="#0093b9" height="384" rx="32" width="240" x="136" y="104"/><rect fill="#2da4c4" height="352" rx="16" width="208" x="152" y="120"/><g fill="#8acadb"><path d="m248 448h16v16h-16z"/><path d="m200 136h16v16h-16z"/><path d="m168 136h16v16h-16z"/><path d="m192 376h16v16h-16z"/><path d="m224 376h112v16h-112z"/><path d="m176 408h160v16h-160z"/></g><path d="m104 176h16v208h-16z" fill="#c9c9c7"/><circle cx="352" cy="120" fill="#e3e4e2" r="96"/><path d="m400 104c0 40-48 80-48 80s-48-40-48-80a48 48 0 0 1 96 0z" fill="#eb5849"/><circle cx="352" cy="104" fill="#e3e4e2" r="16"/><path d="m104 400h16v16h-16z" fill="#c9c9c7"/><path d="m192 272h128v80h-128z" fill="#f6bc1b"/><path d="m192 272 16-32h96l16 32z" fill="#f5a820"/><path d="m240 240-8 32v32h48v-32l-8-32z" fill="#f6e369"/><path d="m272 240h-32l-8 32h48z" fill="#f7d40c"/></svg>