<svg id="Flat" height="512" viewBox="0 0 512 512" width="512" xmlns="http://www.w3.org/2000/svg"><path d="m392 384 40 40h32v-40z" fill="#4e4e4f"/><path d="m464 384v16h-56l-16-16z" fill="#3f4041"/><path d="m224 184h240v64h-240z" fill="#4e4e4f" transform="matrix(-1 0 0 -1 688 432)"/><path d="m224 200h240v16h-240z" fill="#3f4041"/><path d="m224 280h240v64h-240z" fill="#4e4e4f" transform="matrix(-1 0 0 -1 688 624)"/><path d="m224 296h240v16h-240z" fill="#3f4041"/><path d="m224 88h240v64h-240z" fill="#4e4e4f" transform="matrix(-1 0 0 -1 688 240)"/><path d="m200 40h288v64h-288z" fill="#686869" transform="matrix(-1 0 0 -1 688 144)"/><g fill="#56c3c1"><path d="m448 64h16v16h-16z"/><path d="m416 64h16v16h-16z"/><path d="m360 64h40v16h-40z"/></g><path d="m200 136h288v64h-288z" fill="#686869" transform="matrix(-1 0 0 -1 688 336)"/><path d="m448 160h16v16h-16z" fill="#56c3c1"/><path d="m416 160h16v16h-16z" fill="#56c3c1"/><path d="m360 160h40v16h-40z" fill="#56c3c1"/><path d="m200 232h288v64h-288z" fill="#686869" transform="matrix(-1 0 0 -1 688 528)"/><path d="m448 256h16v16h-16z" fill="#56c3c1"/><path d="m416 256h16v16h-16z" fill="#56c3c1"/><path d="m360 256h40v16h-40z" fill="#56c3c1"/><path d="m200 328h288v64h-288z" fill="#686869" transform="matrix(-1 0 0 -1 688 720)"/><path d="m448 352h16v16h-16z" fill="#56c3c1"/><path d="m416 352h16v16h-16z" fill="#56c3c1"/><path d="m360 352h40v16h-40z" fill="#56c3c1"/><path d="m224 104h240v16h-240z" fill="#3f4041"/><rect fill="#0093b9" height="336" rx="32" width="192" x="96" y="136"/><rect fill="#2da4c4" height="304" rx="16" width="160" x="112" y="152"/><path d="m184 432h16v16h-16z" fill="#8acadb"/><path d="m200 160h16v16h-16z" fill="#8acadb"/><path d="m168 160h16v16h-16z" fill="#8acadb"/><path d="m24 392 16-16v-72a24 24 0 0 1 24-24h32v32l20-20a16.971 16.971 0 0 1 24 0 16.971 16.971 0 0 1 0 24l-36 36a45.255 45.255 0 0 1 0 64l-40 40z" fill="#f6c8a7"/><rect fill="#e99180" height="16.001" rx="8.001" transform="matrix(.707 -.707 .707 .707 -200.5 155.951)" width="22.627" x="76.686" y="311.999"/><path d="m192 368.01a80 80 0 1 0 0-128.02z" fill="#f6bc1b"/><path d="m184 208h16v192h-16z" fill="#107c98"/><path d="m248 265.045v-9.045h-16v9.045a22.834 22.834 0 0 0 -3.379 42.21l15.6 7.8a6.833 6.833 0 0 1 -3.054 12.945h-2.334a6.84 6.84 0 0 1 -6.833-6.833v-1.167h-16v1.167a22.876 22.876 0 0 0 16 21.788v9.045h16v-9.045a22.834 22.834 0 0 0 3.379-42.21l-15.6-7.8a6.833 6.833 0 0 1 3.054-12.945h2.334a6.84 6.84 0 0 1 6.833 6.833v1.167h16v-1.167a22.876 22.876 0 0 0 -16-21.788z" fill="#f79726"/><path d="m280 296h16v16h-16z" fill="#f79726"/></svg>