<svg id="Flat" height="512" viewBox="0 0 512 512" width="512" xmlns="http://www.w3.org/2000/svg"><path d="m160 72h224v416h-224z" fill="#0093b9"/><path d="m144 56h256v32h-256z" fill="#0093b9"/><path d="m160 88h224v16h-224z" fill="#107c98"/><path d="m248 56h48v104h-48z" fill="#e3e4e2"/><path d="m248 88h48v16h-48z" fill="#b2b1b4"/><path d="m344 272-24-32a24.721 24.721 0 0 1 35.777-22.111l28.223 14.111 28.223-14.111a24.721 24.721 0 0 1 35.777 22.111l-24 32v32l54.751 88.97a62.353 62.353 0 0 1 9.249 32.678 62.352 62.352 0 0 1 -62.352 62.352h-83.3a62.352 62.352 0 0 1 -62.348-62.352 62.353 62.353 0 0 1 9.249-32.678l54.751-88.97z" fill="#eaae48"/><g fill="#b0792c"><path d="m392 361.045v-9.045h-16v9.045a22.834 22.834 0 0 0 -3.378 42.21l15.6 7.8a6.833 6.833 0 0 1 -3.055 12.945h-2.334a6.84 6.84 0 0 1 -6.833-6.833v-1.167h-16v1.167a22.874 22.874 0 0 0 16 21.788v9.045h16v-9.045a22.834 22.834 0 0 0 3.378-42.21l-15.6-7.8a6.833 6.833 0 0 1 3.055-12.945h2.334a6.84 6.84 0 0 1 6.833 6.833v1.167h16v-1.167a22.874 22.874 0 0 0 -16-21.788z"/><path d="m424 392h16v16h-16z"/><path d="m344 272h80v32h-80z"/></g><path d="m40 232h224v256h-224z" fill="#85bb40"/><path d="m24 216h256v32h-256z" fill="#85bb40"/><path d="m40 248h224v16h-224z" fill="#7b9e3e"/><path d="m128 216h48v104h-48z" fill="#e3e4e2"/><path d="m128 248h48v16h-48z" fill="#b2b1b4"/><rect fill="#f6bc1b" height="32" rx="16" width="96" x="224" y="392"/><rect fill="#f79726" height="32" rx="16" width="96" x="224" y="424"/><rect fill="#f6bc1b" height="32" rx="16" width="96" x="224" y="456"/><rect fill="#f79726" height="32" rx="16" width="96" x="128" y="456"/><rect fill="#f6bc1b" height="32" rx="16" width="96" x="128" y="424"/><rect fill="#f79726" height="32" rx="16" width="96" x="128" y="392"/><rect fill="#f6bc1b" height="32" rx="16" width="96" x="128" y="360"/><path d="m168 24h176v16h-176z" fill="#b2b1b4"/><path d="m360 24h16v16h-16z" fill="#b2b1b4"/></svg>