<svg id="Flat" height="512" viewBox="0 0 512 512" width="512" xmlns="http://www.w3.org/2000/svg"><path d="m376 256a120.078 120.078 0 1 1 -124.56-119.9c1.51-.07 3.03-.1 4.56-.1a119.891 119.891 0 0 1 120 120z" fill="#0093b9"/><path d="m373.71 232.57-29.71 7.43-48-8v-24l-16-24-24-16-4.56-31.9c1.51-.07 3.03-.1 4.56-.1a120.043 120.043 0 0 1 117.71 96.57z" fill="#85bb40"/><path d="m208 288v24l16 24v35.68a120.035 120.035 0 0 1 -15.18-226.04l15.18 30.36v40l32 16-16 40z" fill="#85bb40"/><path d="m371.22 289.61a120.081 120.081 0 0 1 -101.62 85.62l-5.6-39.23 24-16 16-40h48z" fill="#85bb40"/><g fill="#f6bc1b"><path d="m320 304h16v16h-16z"/><path d="m320 200h16v16h-16z"/><path d="m184 192h16v16h-16z"/><path d="m168 280h16v16h-16z"/><path d="m312 408h16v16h-16z"/><path d="m280 408h16v16h-16z"/><path d="m248 408h16v16h-16z"/><path d="m216 408h16v16h-16z"/><path d="m184 408h16v16h-16z"/><path d="m312 88h16v16h-16z"/><path d="m280 88h16v16h-16z"/><path d="m248 88h16v16h-16z"/><path d="m216 88h16v16h-16z"/><path d="m184 88h16v16h-16z"/><path d="m88 312h16v16h-16z"/><path d="m88 280h16v16h-16z"/><path d="m88 248h16v16h-16z"/><path d="m88 216h16v16h-16z"/><path d="m88 184h16v16h-16z"/><path d="m408 312h16v16h-16z"/><path d="m408 280h16v16h-16z"/><path d="m408 248h16v16h-16z"/><path d="m408 216h16v16h-16z"/><path d="m408 184h16v16h-16z"/></g><path d="m160 96a64 64 0 1 1 -64-64 63.969 63.969 0 0 1 64 64z" fill="#0093b9"/><circle cx="96" cy="88" fill="#f6bc1b" r="24"/><path d="m128 144v7.44a64.093 64.093 0 0 1 -64 0v-7.44a32 32 0 1 1 64 0z" fill="#f6bc1b"/><path d="m480 96a64 64 0 1 1 -64-64 63.969 63.969 0 0 1 64 64z" fill="#0093b9"/><circle cx="416" cy="88" fill="#f6bc1b" r="24"/><path d="m448 144v7.44a64.093 64.093 0 0 1 -64 0v-7.44a32 32 0 1 1 64 0z" fill="#f6bc1b"/><path d="m160 416a64 64 0 1 1 -64-64 63.969 63.969 0 0 1 64 64z" fill="#0093b9"/><circle cx="96" cy="408" fill="#f6bc1b" r="24"/><path d="m128 464v7.44a64.093 64.093 0 0 1 -64 0v-7.44a32 32 0 1 1 64 0z" fill="#f6bc1b"/><path d="m480 416a64 64 0 1 1 -64-64 63.969 63.969 0 0 1 64 64z" fill="#0093b9"/><circle cx="416" cy="408" fill="#f6bc1b" r="24"/><path d="m448 464v7.44a64.093 64.093 0 0 1 -64 0v-7.44a32 32 0 1 1 64 0z" fill="#f6bc1b"/></svg>