<svg id="Flat" height="512" viewBox="0 0 512 512" width="512" xmlns="http://www.w3.org/2000/svg"><path d="m256 80a176 176 0 1 0 176 176 176 176 0 0 0 -176-176zm0 312a136 136 0 1 1 136-136 136 136 0 0 1 -136 136z" fill="#85bb40"/><path d="m457.711 364.934 22.289-20.122c-5.368-12.961-5.382-12.994-10.751-25.955l-29.989 1.532-15.649-15.649 1.531-29.99-25.954-10.75-20.123 22.289h-22.131l-20.122-22.289-25.955 10.75 1.532 29.99-15.649 15.649-29.99-1.532-10.75 25.955 22.289 20.122v22.131l-22.289 20.123 10.75 25.955 29.99-1.532 15.649 15.649-1.532 29.99 25.955 10.75 20.122-22.289h22.131l20.123 22.289 25.954-10.75-1.531-29.99 15.649-15.649 29.989 1.532 10.751-25.955-22.289-20.123zm-89.711 59.066a48 48 0 1 1 48-48 48 48 0 0 1 -48 48z" fill="#eb5849"/><path d="m24 24h96v176h-96z" fill="#5db9d2"/><g fill="#2aa2c3"><path d="m48 48h16v16h-16z"/><path d="m80 48h16v16h-16z"/><path d="m48 80h16v16h-16z"/><path d="m48 112h16v16h-16z"/><path d="m48 144h16v16h-16z"/></g><path d="m88 88h96v112h-96z" fill="#0093b9"/><path d="m112 144h16v16h-16z" fill="#5db9d2"/><path d="m144 144h16v16h-16z" fill="#5db9d2"/><path d="m112 112h16v16h-16z" fill="#5db9d2"/><path d="m144 112h16v16h-16z" fill="#5db9d2"/><circle cx="104" cy="312" fill="#0093b9" r="40"/><path d="m152 496v-24h8a16 16 0 0 0 16-16v-72a32 32 0 0 0 -32-32h-80a32 32 0 0 0 -32 32v72a16 16 0 0 0 16 16h8v24z" fill="#0093b9"/><path d="m64 480a8 8 0 0 1 -8-8 8 8 0 0 1 8-8 8 8 0 0 0 8-8v-12.687l-13.657-13.656a8 8 0 0 1 -2.343-5.657v-24h16v20.687l13.657 13.656a8 8 0 0 1 2.343 5.657v16a24 24 0 0 1 -24 24z" fill="#107c98"/><path d="m144 480a24 24 0 0 1 -24-24v-16a8 8 0 0 1 2.343-5.657l13.657-13.656v-20.687h16v24a8 8 0 0 1 -2.343 5.657l-13.657 13.656v12.687a8 8 0 0 0 8 8 8 8 0 0 1 8 8 8 8 0 0 1 -8 8z" fill="#107c98"/><path d="m328 96h128v80h-128z" fill="#f6bc1b"/><path d="m328 96 16-32h96l16 32z" fill="#f5a820"/><path d="m376 64-8 32v32h48v-32l-8-32z" fill="#f6e369"/><path d="m408 64h-32l-8 32h48z" fill="#f7d40c"/></svg>