<svg id="Flat" height="512" viewBox="0 0 512 512" width="512" xmlns="http://www.w3.org/2000/svg"><path d="m56 136h400v320h-400z" fill="#c9c9c7"/><path d="m88 168h336v240h-336z" fill="#0093b9"/><path d="m104 184h304v208h-304z" fill="#2da4c4"/><path d="m224 176h248v-144h-168l-80 80z" fill="#85bb40"/><path d="m304 64h16v16h-16z" fill="#c3da61"/><path d="m336 64h104v16h-104z" fill="#c3da61"/><path d="m288 96h152v16h-152z" fill="#c3da61"/><path d="m288 128h136v16h-136z" fill="#c3da61"/><path d="m48 488a24 24 0 0 1 -24-24v-24h160l16 16h112l16-16h160v24a24 24 0 0 1 -24 24z" fill="#e3e4e2"/><path d="m216 360v-56h-16v56h-16v-40h-16v40h-16v-24h-16v24h-16v16h112v-16z" fill="#f6bc1b"/><path d="m256 360h16v16h-16z" fill="#f6bc1b"/><path d="m288 360h104v16h-104z" fill="#f6bc1b"/><path d="m264 271.8a56 56 0 1 1 56 56 56 56 0 0 1 -56-56z" fill="#eb5849"/><path d="m320 271.8v-56a56 56 0 0 1 39.6 95.6z" fill="#0093b9"/><path d="m264 271.8a56 56 0 0 1 56-56v112a56 56 0 0 1 -56-56z" fill="#f6bc1b"/><path d="m240 184a24 24 0 0 0 24-24 24 24 0 0 0 -24-24z" fill="#e89080"/><path d="m48 136v-47.12a64.88 64.88 0 0 1 64.88-64.88h62.24a64.88 64.88 0 0 1 64.88 64.88v103.12a88 88 0 0 1 -88 88h-16a88 88 0 0 1 -88-88v-8a24 24 0 0 1 -24-24 24 24 0 0 1 24-24z" fill="#f6c8a7"/><path d="m240 128h-16a48.031 48.031 0 0 1 -48-48 48.072 48.072 0 0 1 -48 48h-8v-32a32 32 0 0 1 -32 32h-40v-39.12a64.88 64.88 0 0 1 64.88-64.88h62.24a64.88 64.88 0 0 1 64.88 64.88z" fill="#4e4e4f"/><g fill="#a3783b"><path d="m152 216h8a16.021 16.021 0 0 0 16-16v-32h40a8 8 0 0 0 0-16h-40a16.021 16.021 0 0 0 -16 16v32h-8a8 8 0 0 0 0 16z"/><path d="m104 168h32a8 8 0 0 0 0-16h-32a8 8 0 0 0 0 16z"/><path d="m136 256h16a8 8 0 0 0 0-16h-16a8 8 0 0 0 0 16z"/><circle cx="120" cy="184" r="8"/><circle cx="200" cy="184" r="8"/></g></svg>