<svg id="Flat" height="512" viewBox="0 0 512 512" width="512" xmlns="http://www.w3.org/2000/svg"><path d="m104 24h336v432h-336z" fill="#85bb40"/><path d="m264 56h16v16h-16z" fill="#f6bc1b"/><path d="m218.745 74.745h16.001v16.001h-16.001z" fill="#f6bc1b" transform="matrix(.707 -.707 .707 .707 7.902 184.568)"/><path d="m200 120h16v16h-16z" fill="#f6bc1b"/><path d="m328 120h16v16h-16z" fill="#f6bc1b"/><path d="m309.254 74.745h16.001v16.001h-16.001z" fill="#f6bc1b" transform="matrix(.707 -.707 .707 .707 34.412 248.569)"/><path d="m242.49 140.4-26.49 59.6 32 16 21.05-56.14z" fill="#e8732d"/><path d="m301.51 140.4 26.49 59.6-32 16-21.05-56.14z" fill="#e8732d"/><g fill="#c3da61"><path d="m160 240h16v16h-16z"/><path d="m192 240h208v16h-208z"/><path d="m144 272h256v16h-256z"/><path d="m264 304h136v16h-136z"/><path d="m144 304h56v16h-56z"/><path d="m384 400h16v16h-16z"/><path d="m352 400h16v16h-16z"/></g><path d="m120 384h80l16-24 8-40a32 32 0 0 1 32 32v32h40a24 24 0 0 1 24 24v56a24 24 0 0 1 -24 24h-46.059a81.941 81.941 0 0 1 -57.941-24h-72z" fill="#f6c8a7"/><path d="m72 368h96v112h-96z" fill="#0093b9"/><path d="m128 440h16v16h-16z" fill="#5db9d2"/><circle cx="272" cy="128" fill="#f6bc1b" r="40"/><path d="m264 120h16v16h-16z" fill="#e8732d"/></svg>