<svg id="Flat" height="512" viewBox="0 0 512 512" width="512" xmlns="http://www.w3.org/2000/svg"><path d="m456 224a202.719 202.719 0 0 1 -1.33 23.24 200.117 200.117 0 1 1 -198.67-223.24c110.46 0 200 89.54 200 200z" fill="#0093b9"/><path d="m456 224a202.719 202.719 0 0 1 -1.33 23.24l-30.67 8.76-32-8-16-48-32 24-48-8-8-24 24-24 16-32-24-32-24 8-24 40-48-16v-32l-40-16 10.79-48.55a199.406 199.406 0 0 1 77.21-15.45c110.46 0 200 89.54 200 200z" fill="#85bb40"/><path d="m192 200v32l-24 40-72.01 72.01a200.035 200.035 0 0 1 11.14-253.57l20.87 37.56v24l24 40z" fill="#85bb40"/><path d="m404.25 358.24a200.326 200.326 0 0 1 -198.01 59.52l49.76-49.76 8-72 48-8 40 32 24-16 24 16z" fill="#85bb40"/><g fill="#f6bc1b"><path d="m288 320h16v16h-16z"/><path d="m408 192h16v16h-16z"/><path d="m368 128h16v16h-16z"/><path d="m240 80h16v16h-16z"/><path d="m144 216h16v16h-16z"/></g><path d="m433.707 385.311-11.844-10.758c3.195-3.517 6.322-7.188 9.294-10.91l12.5 9.984c-3.18 3.986-6.529 7.917-9.95 11.684z" fill="#c9c9c7"/><path d="m453.982 359.7-13.189-9.056a224.065 224.065 0 0 0 -45.065-301.733l9.988-12.5a240.063 240.063 0 0 1 48.266 323.289z" fill="#c9c9c7"/><path d="m120 296h96v96h96v96h-288v-288h96z" fill="#f6bc1b"/><path d="m248 392h32v32h-32z" fill="#f9da62"/><path d="m312 408h-4a12 12 0 0 0 -12 12v27.514a24 24 0 0 1 -24 24h-28a12 12 0 0 0 -12 12v4.486h80z" fill="#f5a922"/><path d="m152 392h32v32h-32z" fill="#f9da62"/><path d="m216 408h-4a12 12 0 0 0 -12 12v27.514a24 24 0 0 1 -24 24h-28a12 12 0 0 0 -12 12v4.486h80z" fill="#f5a922"/><path d="m56 392h32v32h-32z" fill="#f9da62"/><path d="m120 408h-4a12 12 0 0 0 -12 12v27.514a24 24 0 0 1 -24 24h-28a12 12 0 0 0 -12 12v4.486h80z" fill="#f5a922"/><path d="m152 296h32v32h-32z" fill="#f9da62"/><path d="m216 312h-4a12 12 0 0 0 -12 12v27.514a24 24 0 0 1 -24 24h-28a12 12 0 0 0 -12 12v4.486h80z" fill="#f5a922"/><path d="m56 296h32v32h-32z" fill="#f9da62"/><path d="m120 312h-4a12 12 0 0 0 -12 12v27.514a24 24 0 0 1 -24 24h-28a12 12 0 0 0 -12 12v4.486h80z" fill="#f5a922"/><path d="m56 200h32v32h-32z" fill="#f9da62"/><path d="m120 216h-4a12 12 0 0 0 -12 12v27.514a24 24 0 0 1 -24 24h-28a12 12 0 0 0 -12 12v4.486h80z" fill="#f5a922"/></svg>