<svg id="Capa_1" enable-background="new 0 0 511.999 511.999" height="512" viewBox="0 0 511.999 511.999" width="512" xmlns="http://www.w3.org/2000/svg"><g><path d="m98.326 285.243-44.372 126.166-16.467 16.467 72.161 72.161 96.784-96.784 70.989-126.867-119.866-24.649c-25.34-5.213-50.645 9.102-59.229 33.506z" fill="#ffcbbe"/><path d="m165.695 375.902 2.905 2.905 74.198-74.198-24.442-24.442-52.662 52.662c-11.893 11.894-11.893 31.178.001 43.073z" fill="#eaac9d"/><ellipse cx="307.127" cy="167.386" fill="#80cb8e" rx="162.476" ry="172.154" transform="matrix(.707 -.707 .707 .707 -28.404 266.198)"/><path d="m336.606 333.579c-50.396 6.057-104.264-11.219-144.369-51.313-67.229-67.229-70.289-173.163-6.84-236.611 35.448-35.448 84.145-50.139 131.956-44.473-34.109 4.09-66.642 18.863-92.253 44.473-63.459 63.449-60.389 169.382 6.84 236.611 29.679 29.68 66.889 46.842 104.666 51.313z" fill="#6ec17d"/><path d="m302.712 272.521c-6.154 0-12.032-2.758-15.967-7.585l-77.08-94.551c-7.19-8.82-5.869-21.798 2.951-28.988 8.819-7.189 21.798-5.869 28.988 2.951l57.28 70.263 66.739-128.41c5.247-10.097 17.686-14.027 27.784-8.78 10.097 5.248 14.028 17.687 8.78 27.784l-81.19 156.215c-3.198 6.154-9.278 10.286-16.177 10.994-.705.072-1.409.107-2.108.107z" fill="#f9f6f9"/><path d="m276.52 258.669-204.12 204.12 49.21 49.21 26.95-26.95 24.5.455c47.723.875 88.051-35.149 92.558-82.653l2.494-26.363 63.114-63.114c7.551-7.551 11.322-17.447 11.331-27.344 0-9.905-3.78-19.81-11.331-27.361-15.104-15.103-39.604-15.103-54.706 0z" fill="#ffcbbe"/><path d="m250.471 360.983c-5.801 61.276-57.829 107.739-119.368 106.61l-26.95 26.95 17.456 17.456 26.95-26.95 24.5.455c47.723.875 88.051-35.149 92.558-82.653l2.494-26.363 63.114-63.114c7.551-7.551 11.322-17.447 11.331-27.344 0-9.905-3.771-19.801-11.331-27.361-3.054-3.054-6.484-5.486-10.141-7.306 2.677 5.407 4.008 11.305 4.007 17.202 0 9.905-3.771 19.801-11.322 27.353l-63.114 63.114z" fill="#eaac9d"/></g></svg>